<svg width="22" height="22" viewBox="0 0 22 22" fill="none" xmlns="http://www.w3.org/2000/svg">
<g clip-path="url(#clip0_1199_7870)">
<path d="M19.7455 2.25414C18.2919 0.800614 16.3592 0 14.3031 0C12.2476 0 10.3148 0.800614 8.86131 2.25414C7.40761 3.70783 6.60717 5.64055 6.60717 7.69681C6.60717 9.53621 7.24833 11.2769 8.42424 12.6645L6.868 14.2204C6.07057 13.8092 5.06418 13.9376 4.3965 14.6054L0.620854 18.3811C0.220379 18.7815 0 19.3139 0 19.8804C0 20.4467 0.220379 20.9791 0.620854 21.3796C1.03425 21.793 1.57739 21.9996 2.12003 21.9996C2.66318 21.9996 3.20581 21.793 3.61921 21.3796L7.39486 17.6038C7.79533 17.2033 8.01571 16.6709 8.01571 16.1046C8.01571 15.7605 7.93397 15.4287 7.78023 15.1313L9.33563 13.5759C10.723 14.7525 12.4641 15.3931 14.3031 15.3931C16.3592 15.3931 18.2919 14.5925 19.7455 13.1388C21.1992 11.6851 21.9996 9.75239 21.9996 7.69681C21.9996 5.64055 21.1992 3.70783 19.7455 2.25414ZM11.6821 10.4468C11.6821 10.8026 11.3939 11.0914 11.0376 11.0914C10.6819 11.0914 10.393 10.8026 10.393 10.4468V8.38379C10.393 8.02813 10.6819 7.73927 11.0376 7.73927C11.3939 7.73927 11.6821 8.02796 11.6821 8.38379V10.4468ZM13.8305 10.4468C13.8305 10.8026 13.5423 11.0914 13.186 11.0914C12.8303 11.0914 12.5414 10.8026 12.5414 10.4468V6.23539C12.5414 5.87956 12.8303 5.5907 13.186 5.5907C13.5423 5.5907 13.8305 5.87956 13.8305 6.23539V10.4468ZM15.9789 10.4468C15.9789 10.8026 15.6907 11.0914 15.3344 11.0914C14.9787 11.0914 14.6898 10.8026 14.6898 10.4468V7.09475C14.6898 6.73892 14.9787 6.45023 15.3344 6.45023C15.6907 6.45023 15.9789 6.73892 15.9789 7.09475V10.4468ZM18.1273 10.4468C18.1273 10.8026 17.8391 11.0914 17.4828 11.0914C17.1271 11.0914 16.8382 10.8026 16.8382 10.4468V4.94619C16.8382 4.59052 17.1271 4.30167 17.4828 4.30167C17.8391 4.30167 18.1273 4.59036 18.1273 4.94619V10.4468Z" fill="white"/>
</g>
<defs>
<clipPath id="clip0_1199_7870">
<rect width="21.9156" height="21.9156" fill="white" transform="scale(1.00383)"/>
</clipPath>
</defs>
</svg>
