<svg width="98" height="101" viewBox="0 0 98 101" fill="none" xmlns="http://www.w3.org/2000/svg">
<g filter="url(#filter0_d_1033_3759)">
<rect x="11.8728" y="12.8342" width="74.2541" height="72.3337" rx="35.8194" fill="#B62E28"/>
<rect x="12.1178" y="13.0792" width="73.7641" height="71.8438" rx="35.5745" stroke="black" stroke-opacity="0.21" stroke-width="0.489965"/>
<g clip-path="url(#clip0_1033_3759)">
<path d="M63.9336 51.9662C63.4945 52.4743 62.9516 52.8826 62.3415 53.1634C61.7314 53.4442 61.0683 53.591 60.3967 53.5941C60.3466 53.5941 60.2993 53.5941 60.2492 53.5913C60.1754 53.5902 60.105 53.5598 60.0537 53.5068C60.0023 53.4538 59.9741 53.3825 59.9752 53.3087C59.9763 53.2349 60.0068 53.1646 60.0598 53.1132C60.1128 53.0619 60.184 53.0336 60.2578 53.0348H60.2659C60.3104 53.0376 60.3521 53.0376 60.3967 53.0376C62.7342 53.0376 64.6348 51.0562 64.6348 48.6213C64.6412 48.0313 64.5295 47.446 64.3064 46.8998C64.0832 46.3536 63.753 45.8575 63.3353 45.4408C63.3173 45.4218 63.3023 45.4003 63.2908 45.3768C63.2908 45.374 63.288 45.3713 63.288 45.3685C63.2684 45.3325 63.2572 45.2925 63.2552 45.2515C63.2533 45.2105 63.2607 45.1697 63.2768 45.1319C63.4192 44.6838 63.4915 44.2163 63.4911 43.7461C63.4911 41.3056 61.5877 39.3246 59.2504 39.3246C56.9132 39.3246 55.0095 41.3056 55.0095 43.7461C55.0095 43.8199 54.9801 43.8907 54.928 43.9429C54.8758 43.9951 54.805 44.0244 54.7312 44.0244C54.6574 44.0244 54.5866 43.9951 54.5344 43.9429C54.4822 43.8907 54.4529 43.8199 54.4529 43.7461C54.4529 40.9995 56.604 38.768 59.2504 38.768H59.2727C59.4176 38.3654 59.492 37.9408 59.4925 37.513C59.4925 35.6401 58.1262 34.1152 56.4509 34.1152C55.8921 34.1289 55.3481 34.2978 54.8798 34.603C54.4114 34.9081 54.0372 35.3376 53.799 35.8433C53.783 35.8763 53.7606 35.9058 53.7331 35.9299C53.7055 35.954 53.6734 35.9724 53.6385 35.9838C53.6037 35.9952 53.567 35.9995 53.5305 35.9964C53.4939 35.9933 53.4584 35.9829 53.4261 35.9657C53.3605 35.9324 53.3108 35.8744 53.2879 35.8045C53.265 35.7347 53.2706 35.6586 53.3036 35.5928C53.5808 35.0113 54.0101 34.5157 54.546 34.1583C55.082 33.801 55.7046 33.5953 56.348 33.5631C55.0306 32.6448 52.4771 31.1073 50.727 31.5998C50.0035 31.8057 49.4998 32.3317 49.1854 33.2138V39.7756C49.4645 39.3884 49.8477 39.0883 50.2905 38.91C50.7333 38.7317 51.2175 38.6826 51.6871 38.7683C51.7605 38.7775 51.8273 38.8155 51.8727 38.874C51.9181 38.9324 51.9384 39.0065 51.9292 39.0799C51.92 39.1534 51.882 39.2201 51.8235 39.2655C51.7651 39.311 51.691 39.3313 51.6175 39.322C49.703 39.0799 49.2382 40.8106 49.1854 41.0332V61.5301C49.1854 64.6131 51.4478 67.1235 54.2303 67.1235C56.0502 67.1235 57.7199 66.0159 58.5853 64.2349C58.5881 64.2294 58.5937 64.2266 58.5965 64.221C58.6059 64.2058 58.6171 64.1918 58.6299 64.1793C58.6404 64.165 58.6526 64.1519 58.666 64.1403C58.6789 64.1304 58.6929 64.1219 58.7078 64.1153C58.7241 64.105 58.7419 64.0975 58.7607 64.093L58.7774 64.0847C59.7527 63.8526 60.6204 63.2961 61.2381 62.5065C61.8559 61.7168 62.1871 60.7408 62.1776 59.7382C62.175 59.3971 62.134 59.0573 62.0552 58.7253C62.0566 58.7151 62.0566 58.7048 62.0552 58.6947C62.0538 58.6771 62.0538 58.6594 62.0552 58.6418C62.0555 58.6268 62.0574 58.6119 62.0608 58.5973C62.0671 58.573 62.0765 58.5497 62.0886 58.5277C62.0912 58.5207 62.095 58.5141 62.0997 58.5082C62.1173 58.4827 62.139 58.4601 62.1637 58.4414L62.1693 58.4359C62.1832 58.4275 62.1916 58.4164 62.2055 58.4081C62.7617 58.1184 63.2516 57.7163 63.6442 57.2272C64.0368 56.7381 64.3234 56.1728 64.4859 55.5671C64.6484 54.9614 64.6832 54.3285 64.5881 53.7086C64.493 53.0887 64.2701 52.4954 63.9336 51.9662ZM57.3832 57.9656C57.0023 57.978 56.6238 58.0293 56.2534 58.1186C56.2023 58.165 56.1359 58.1908 56.0669 58.191H56.0602C56.0422 58.19 56.0243 58.1862 56.0074 58.1799C54.6967 58.5444 52.9213 59.5295 52.9435 62.1871C52.9435 62.2611 52.9142 62.3321 52.8621 62.3848C52.81 62.4374 52.7393 62.4673 52.6652 62.4681C52.6289 62.4684 52.5928 62.4614 52.5591 62.4477C52.5255 62.4339 52.4948 62.4137 52.469 62.3881C52.4431 62.3625 52.4226 62.3321 52.4085 62.2985C52.3944 62.265 52.3871 62.229 52.387 62.1926C52.3622 59.2512 54.3154 58.1186 55.7847 57.6817C55.7319 53.0876 51.6248 52.6591 51.4467 52.6424C51.3731 52.6351 51.3054 52.5992 51.2581 52.5425C51.2107 52.4857 51.1875 52.4127 51.1934 52.3391C51.2005 52.2657 51.2364 52.198 51.2933 52.1511C51.3501 52.1041 51.4233 52.0817 51.4968 52.0886C51.5441 52.0914 56.2022 52.5589 56.3388 57.5429C56.6803 57.4684 57.0276 57.4237 57.3768 57.4093H57.3796C57.4534 57.4089 57.5243 57.4379 57.5767 57.4898C57.6292 57.5418 57.6589 57.6124 57.6592 57.6862C57.6596 57.76 57.6306 57.8309 57.5787 57.8834C57.5268 57.9358 57.4561 57.9655 57.3823 57.9659L57.3832 57.9656ZM59.2504 50.7779H59.2309C56.3869 50.5748 55.7636 48.3235 55.6356 47.5697C54.4059 47.4548 53.2672 46.872 52.4549 45.9417C52.4092 45.8857 52.3871 45.814 52.3933 45.742C52.3996 45.6699 52.4336 45.6031 52.4882 45.5557C52.5429 45.5084 52.6138 45.4841 52.686 45.4881C52.7582 45.4921 52.826 45.5241 52.8751 45.5772C53.2784 46.0383 53.7761 46.4074 54.3345 46.6594C54.8928 46.9115 55.4988 47.0407 56.1114 47.0382C57.2132 47.0547 58.2766 46.6336 59.0684 45.8673C59.8603 45.101 60.3159 44.052 60.3354 42.9502C60.3354 42.8764 60.3648 42.8057 60.4169 42.7535C60.4691 42.7013 60.5399 42.672 60.6137 42.672C60.6875 42.672 60.7583 42.7013 60.8105 42.7535C60.8627 42.8057 60.892 42.8764 60.892 42.9502C60.8726 44.1837 60.3703 45.3604 59.4929 46.2276C58.6155 47.0948 57.433 47.5834 56.1994 47.5883C56.3357 48.306 56.909 50.0536 59.2688 50.2205C59.3426 50.2231 59.4124 50.2549 59.4627 50.3089C59.5131 50.363 59.5399 50.4348 59.5373 50.5086C59.5347 50.5824 59.503 50.6521 59.4489 50.7025C59.3949 50.7528 59.3231 50.7797 59.2493 50.7771L59.2504 50.7779Z" fill="white"/>
<path d="M46.1296 38.7669C46.5991 38.6807 47.0835 38.7297 47.5262 38.9083C47.9689 39.0868 48.3517 39.3875 48.63 39.7754V33.2136C48.3183 32.3317 47.8118 31.8058 47.0911 31.5996C45.3365 31.1045 42.7822 32.6448 41.4659 33.5631C42.1095 33.5955 42.7323 33.8011 43.2686 34.1582C43.805 34.5153 44.2349 35.0106 44.5131 35.5918C44.5463 35.6578 44.5519 35.7344 44.5287 35.8045C44.5055 35.8747 44.4553 35.9328 44.3893 35.966C44.3232 35.9993 44.2467 36.0049 44.1765 35.9816C44.1063 35.9584 44.0482 35.9083 44.015 35.8422C43.777 35.3369 43.4033 34.9076 42.9354 34.6025C42.4676 34.2973 41.9241 34.1282 41.3658 34.1141C39.6877 34.1141 38.3242 35.6391 38.3242 37.5119C38.3234 37.9399 38.3978 38.3647 38.544 38.7669H38.5663C41.2099 38.7669 43.3638 40.9984 43.3638 43.745C43.3638 43.8188 43.3345 43.8896 43.2823 43.9418C43.2301 43.994 43.1593 44.0233 43.0855 44.0233C43.0117 44.0233 42.9409 43.994 42.8888 43.9418C42.8366 43.8896 42.8073 43.8188 42.8073 43.745C42.8073 41.3045 40.9038 39.3235 38.5663 39.3235C36.2287 39.3235 34.3228 41.3056 34.3228 43.7461C34.3224 44.2164 34.3947 44.6838 34.5371 45.132C34.5536 45.1695 34.5615 45.2102 34.56 45.2512C34.5586 45.2922 34.5479 45.3323 34.5287 45.3685C34.5267 45.3727 34.5238 45.3765 34.5204 45.3796C34.5108 45.4027 34.4966 45.4235 34.4787 45.4409C34.0612 45.8577 33.7315 46.3538 33.5088 46.9C33.2861 47.4462 33.1749 48.0315 33.1819 48.6213C33.1819 51.0562 35.0825 53.0376 37.4201 53.0376C37.4615 53.0376 37.506 53.0376 37.5478 53.0348C37.6207 53.0357 37.6906 53.064 37.7437 53.114C37.7967 53.1639 37.8291 53.232 37.8344 53.3047C37.8359 53.3413 37.83 53.3779 37.8172 53.4122C37.8044 53.4465 37.7848 53.4779 37.7597 53.5046C37.7346 53.5313 37.7044 53.5527 37.671 53.5676C37.6375 53.5825 37.6014 53.5906 37.5648 53.5914C37.5172 53.5941 37.4671 53.5941 37.4201 53.5941C36.7482 53.591 36.0848 53.4441 35.4744 53.1633C34.864 52.8825 34.3208 52.4743 33.8812 51.9662C33.5456 52.4957 33.3235 53.089 33.229 53.7086C33.1344 54.3283 33.1694 54.9609 33.3319 55.5663C33.4943 56.1717 33.7805 56.7369 34.1725 57.226C34.5645 57.7152 35.0538 58.1177 35.6093 58.4081C35.6219 58.4167 35.6339 58.426 35.6455 58.4359C35.6483 58.4387 35.651 58.4387 35.6538 58.4415C35.6779 58.4609 35.6994 58.4834 35.7178 58.5083C35.7205 58.5153 35.7242 58.5219 35.729 58.5277C35.7402 58.5498 35.7486 58.5732 35.754 58.5973C35.7584 58.6118 35.7612 58.6267 35.7624 58.6418C35.7628 58.6595 35.7619 58.6772 35.7596 58.6947C35.761 58.7049 35.761 58.7152 35.7596 58.7253C35.6822 59.0575 35.6411 59.3972 35.6371 59.7383C35.6277 60.7411 35.9593 61.7173 36.5774 62.507C37.1956 63.2967 38.0636 63.853 39.0394 64.0847C39.0446 64.088 39.0502 64.0908 39.0561 64.093C39.0733 64.0993 39.09 64.1067 39.1061 64.1153C39.1216 64.1226 39.1364 64.1309 39.1507 64.1403C39.1625 64.1517 39.1737 64.1638 39.1841 64.1765C39.1983 64.1905 39.2105 64.2064 39.2202 64.2238C39.223 64.2266 39.2286 64.2294 39.2286 64.235C40.0968 66.0159 41.7637 67.1235 43.5864 67.1235C46.3662 67.1235 48.63 64.6134 48.63 61.5301V41.0329C48.5799 40.8103 48.1151 39.0825 46.1978 39.3218C46.1244 39.3307 46.0504 39.31 45.9922 39.2643C45.934 39.2187 45.8964 39.1517 45.8875 39.0783C45.8787 39.0049 45.8993 38.9309 45.945 38.8727C45.9907 38.8145 46.0576 38.7769 46.131 38.768L46.1296 38.7669ZM38.5858 50.778H38.5663C38.4925 50.7805 38.4207 50.7537 38.3667 50.7033C38.3126 50.653 38.2809 50.5832 38.2783 50.5094C38.2757 50.4356 38.3025 50.3638 38.3529 50.3098C38.4032 50.2558 38.473 50.224 38.5468 50.2214C40.9038 50.0544 41.4799 48.3069 41.6162 47.5892C40.3822 47.5845 39.1992 47.096 38.3215 46.2286C37.4437 45.3612 36.9412 44.1841 36.9219 42.9503C36.9219 42.8765 36.9513 42.8057 37.0034 42.7535C37.0556 42.7013 37.1264 42.672 37.2002 42.672C37.274 42.672 37.3448 42.7013 37.397 42.7535C37.4492 42.8057 37.4785 42.8765 37.4785 42.9503C37.4981 44.052 37.9538 45.1011 38.7457 45.8674C39.5375 46.6337 40.6009 47.0547 41.7028 47.0382C42.3155 47.0412 42.9217 46.9123 43.4801 46.6603C44.0386 46.4082 44.5362 46.0388 44.9391 45.5772C44.9625 45.5479 44.9916 45.5236 45.0247 45.5058C45.0577 45.488 45.094 45.4771 45.1313 45.4737C45.1687 45.4703 45.2063 45.4745 45.242 45.486C45.2777 45.4975 45.3107 45.5161 45.3391 45.5407C45.3674 45.5653 45.3905 45.5953 45.4069 45.6291C45.4233 45.6628 45.4327 45.6995 45.4346 45.737C45.4364 45.7744 45.4307 45.8119 45.4177 45.8471C45.4048 45.8823 45.3848 45.9145 45.3591 45.9418C44.5479 46.872 43.4103 47.4549 42.1814 47.5697C42.0503 48.3236 41.4298 50.5748 38.5858 50.778ZM46.3202 52.0887C46.3565 52.0849 46.3931 52.0885 46.428 52.0992C46.4628 52.1098 46.4952 52.1273 46.5232 52.1506C46.5512 52.174 46.5743 52.2027 46.591 52.235C46.6078 52.2674 46.6179 52.3028 46.6208 52.3391C46.6272 52.4129 46.6042 52.4862 46.5567 52.543C46.5093 52.5998 46.4413 52.6356 46.3675 52.6424C46.1922 52.6591 42.0821 53.0877 42.0295 57.6818C43.4988 58.1187 45.4523 59.2513 45.4297 62.1927C45.429 62.266 45.3994 62.3361 45.3473 62.3876C45.2952 62.4392 45.2248 62.4682 45.1515 62.4682H45.1487C45.1121 62.4678 45.076 62.4602 45.0424 62.4459C45.0088 62.4316 44.9783 62.4108 44.9527 62.3847C44.9271 62.3586 44.907 62.3277 44.8933 62.2938C44.8797 62.2599 44.8728 62.2236 44.8732 62.1871C44.8927 59.5268 43.1259 58.5444 41.8121 58.1799C41.793 58.1852 41.7734 58.1889 41.7537 58.191H41.7509C41.7149 58.1915 41.6792 58.1849 41.6457 58.1715C41.6123 58.1581 41.5818 58.1383 41.5561 58.1131C41.1883 58.0258 40.8125 57.9764 40.4346 57.9656C40.3608 57.9653 40.2902 57.9356 40.2383 57.8831C40.1864 57.8307 40.1574 57.7598 40.1578 57.6859C40.1581 57.6121 40.1878 57.5415 40.2403 57.4896C40.2927 57.4377 40.3636 57.4087 40.4374 57.4091H40.4402C40.7885 57.4234 41.1349 57.4681 41.4754 57.5426C41.6134 52.5589 46.2688 52.0914 46.3202 52.0887Z" fill="white"/>
</g>
</g>
<defs>
<filter id="filter0_d_1033_3759" x="-0.000371689" y="4.91875" width="98.0007" height="96.0799" filterUnits="userSpaceOnUse" color-interpolation-filters="sRGB">
<feFlood flood-opacity="0" result="BackgroundImageFix"/>
<feColorMatrix in="SourceAlpha" type="matrix" values="0 0 0 0 0 0 0 0 0 0 0 0 0 0 0 0 0 0 127 0" result="hardAlpha"/>
<feOffset dy="3.91972"/>
<feGaussianBlur stdDeviation="5.87958"/>
<feComposite in2="hardAlpha" operator="out"/>
<feColorMatrix type="matrix" values="0 0 0 0 0 0 0 0 0 0 0 0 0 0 0 0 0 0 0.1 0"/>
<feBlend mode="normal" in2="BackgroundImageFix" result="effect1_dropShadow_1033_3759"/>
<feBlend mode="normal" in="SourceGraphic" in2="effect1_dropShadow_1033_3759" result="shape"/>
</filter>
<clipPath id="clip0_1033_3759">
<rect width="35.2775" height="35.2775" fill="white" transform="translate(31.0976 31.5038) scale(1.0097)"/>
</clipPath>
</defs>
</svg>
