<svg width="112" height="115" viewBox="0 0 112 115" fill="none" xmlns="http://www.w3.org/2000/svg">
<g filter="url(#filter0_d_1319_4769)">
<rect x="11.7892" y="10.7034" width="88.4219" height="88.4219" rx="44.0968" fill="white"/>
<rect x="12.0342" y="10.9484" width="87.9319" height="87.9319" rx="43.8519" stroke="black" stroke-opacity="0.21" stroke-width="0.489965"/>
<path fill-rule="evenodd" clip-rule="evenodd" d="M62.3743 41.8649C61.7605 43.0586 61.3837 44.2965 61.3837 45.3576C61.3837 47.2365 62.1589 48.9387 63.3874 50.1434L63.2044 51.0166C62.8491 52.7408 62.6111 54.9403 62.5142 57.2835C60.9315 56.8524 59.3811 56.9298 58.1536 58.6208C56.4573 60.9426 57.4513 63.4626 58.3006 65.6156C59.0685 67.5622 59.7181 69.2089 58.1536 70.1378C57.0662 70.7789 56.4202 70.7789 54.9236 70.7789C46.6008 70.7789 39.8499 63.8488 39.8499 55.305C39.8499 46.7613 46.6008 39.8312 54.9236 39.8312C57.6368 39.8312 60.1778 40.5717 62.3743 41.8649ZM47.3867 49.7787C45.5994 49.7787 44.1567 51.2597 44.1567 53.0945C44.1567 54.9292 45.5994 56.4103 47.3867 56.4103C49.174 56.4103 50.6168 54.9292 50.6168 53.0945C50.6168 51.2597 49.174 49.7787 47.3867 49.7787ZM46.3101 61.9367C46.3101 63.7714 47.7528 65.2525 49.5401 65.2525C51.3274 65.2525 52.7702 63.7714 52.7702 61.9367C52.7702 60.1019 51.3274 58.6208 49.5401 58.6208C47.7528 58.6208 46.3101 60.1019 46.3101 61.9367ZM50.6599 46.4628C50.6599 48.2976 52.1026 49.7787 53.8899 49.7787C55.6772 49.7787 57.12 48.2976 57.12 46.4628C57.12 44.6281 55.6772 43.147 53.8899 43.147C52.1026 43.147 50.6599 44.6281 50.6599 46.4628ZM67.8438 71.8841C70.837 71.8841 71.0739 62.5777 71.0739 59.7261C71.0739 56.6203 70.8155 53.625 70.3741 51.4697C69.5988 51.8013 68.7375 51.9892 67.8438 51.9892C66.9502 51.9892 66.0888 51.8013 65.3136 51.4697C64.8722 53.625 64.6138 56.6203 64.6138 59.7261C64.6138 62.5777 64.8506 71.8841 67.8438 71.8841Z" fill="#263238"/>
<path d="M67.8438 49.7787C65.4654 49.7787 63.5371 47.7991 63.5371 45.3576C63.5371 42.916 66.7671 38.7259 68.9205 38.7259C68.9205 42.0417 72.1506 42.0417 72.1506 45.3576C72.1506 47.7991 70.2222 49.7787 67.8438 49.7787Z" fill="#A41A1E"/>
</g>
<defs>
<filter id="filter0_d_1319_4769" x="-0.000369071" y="2.84368" width="112.001" height="112.001" filterUnits="userSpaceOnUse" color-interpolation-filters="sRGB">
<feFlood flood-opacity="0" result="BackgroundImageFix"/>
<feColorMatrix in="SourceAlpha" type="matrix" values="0 0 0 0 0 0 0 0 0 0 0 0 0 0 0 0 0 0 127 0" result="hardAlpha"/>
<feOffset dy="3.91972"/>
<feGaussianBlur stdDeviation="5.87958"/>
<feComposite in2="hardAlpha" operator="out"/>
<feColorMatrix type="matrix" values="0 0 0 0 0 0 0 0 0 0 0 0 0 0 0 0 0 0 0.1 0"/>
<feBlend mode="normal" in2="BackgroundImageFix" result="effect1_dropShadow_1319_4769"/>
<feBlend mode="normal" in="SourceGraphic" in2="effect1_dropShadow_1319_4769" result="shape"/>
</filter>
</defs>
</svg>
