<svg width="112" height="124" viewBox="0 0 112 124" fill="none" xmlns="http://www.w3.org/2000/svg">
<g filter="url(#filter0_d_1033_3754)">
<rect x="11.7892" y="19.6493" width="88.4219" height="88.4219" rx="44.0968" fill="#B62E28"/>
<rect x="12.0342" y="19.8943" width="87.9319" height="87.9319" rx="43.8519" stroke="black" stroke-opacity="0.21" stroke-width="0.489965"/>
<g clip-path="url(#clip0_1033_3754)">
<path d="M62.0114 65.9679L53.543 57.3026C53.2382 56.991 52.8594 56.7659 52.4438 56.6494C52.0283 56.5329 51.5903 56.529 51.1728 56.6381L43.4377 58.7097C42.904 58.8493 42.4318 59.1687 42.0972 59.6165C41.7626 60.0643 41.5851 60.6144 41.5934 61.178C41.6413 67.4007 40.5329 73.5761 38.327 79.3752C38.2172 79.6761 38.1943 80.0029 38.261 80.3168C38.3277 80.6306 38.4811 80.9182 38.7031 81.1453C38.925 81.3725 39.2061 81.5295 39.5128 81.5977C39.8195 81.6659 40.139 81.6425 40.433 81.5302C46.1008 79.2756 52.1358 78.1439 58.2167 78.1954C58.7675 78.2039 59.305 78.0223 59.7426 77.6799C60.1802 77.3375 60.4924 76.8543 60.6288 76.3082L62.6607 68.3932C62.7674 67.966 62.7636 67.5178 62.6497 67.0926C62.5359 66.6674 62.3159 66.2798 62.0114 65.9679ZM54.3405 71.1469C53.7611 71.7398 53.0229 72.1436 52.2192 72.3071C51.4156 72.4707 50.5826 72.3868 49.8256 72.0659C49.0686 71.7451 48.4215 71.2017 47.9663 70.5046C47.5111 69.8075 47.2681 68.9878 47.2681 68.1494C47.2681 67.311 47.5111 66.4914 47.9663 65.7942C48.4215 65.0971 49.0686 64.5537 49.8256 64.2329C50.5826 63.912 51.4156 63.8281 52.2192 63.9917C53.0229 64.1553 53.7611 64.559 54.3405 65.1519C55.1161 65.9476 55.5518 67.0255 55.5518 68.1494C55.5518 69.2733 55.1161 70.3513 54.3405 71.1469Z" fill="white"/>
<path d="M72.06 57.141L62.1681 47.0191C61.204 46.0326 59.641 46.0326 58.677 47.0191L55.158 50.6199C54.194 51.6063 54.194 53.2057 55.158 54.1921L65.0499 64.3141C66.014 65.3005 67.577 65.3005 68.541 64.3141L72.06 60.7133C73.024 59.7268 73.024 58.1275 72.06 57.141Z" fill="white"/>
</g>
</g>
<defs>
<filter id="filter0_d_1033_3754" x="-0.000369071" y="11.7896" width="112.001" height="112.001" filterUnits="userSpaceOnUse" color-interpolation-filters="sRGB">
<feFlood flood-opacity="0" result="BackgroundImageFix"/>
<feColorMatrix in="SourceAlpha" type="matrix" values="0 0 0 0 0 0 0 0 0 0 0 0 0 0 0 0 0 0 127 0" result="hardAlpha"/>
<feOffset dy="3.91972"/>
<feGaussianBlur stdDeviation="5.87958"/>
<feComposite in2="hardAlpha" operator="out"/>
<feColorMatrix type="matrix" values="0 0 0 0 0 0 0 0 0 0 0 0 0 0 0 0 0 0 0.1 0"/>
<feBlend mode="normal" in2="BackgroundImageFix" result="effect1_dropShadow_1033_3754"/>
<feBlend mode="normal" in="SourceGraphic" in2="effect1_dropShadow_1033_3754" result="shape"/>
</filter>
<clipPath id="clip0_1033_3754">
<rect width="34.4757" height="35.2775" fill="white" transform="translate(38.2188 46.2806) scale(1.00259)"/>
</clipPath>
</defs>
</svg>
