<svg width="98" height="99" viewBox="0 0 98 99" fill="none" xmlns="http://www.w3.org/2000/svg">
<g filter="url(#filter0_d_1319_4789)">
<rect x="11.8671" y="10.8786" width="74.218" height="72.2986" rx="35.8194" fill="#121212"/>
<rect x="12.1121" y="11.1235" width="73.728" height="71.8086" rx="35.5745" stroke="black" stroke-opacity="0.21" stroke-width="0.489965"/>
<g clip-path="url(#clip0_1319_4789)">
<path d="M35.1019 42.0349H33.1897C32.6612 42.0349 32.2336 42.4626 32.2336 42.991C32.2336 43.5195 32.6612 43.9471 33.1897 43.9471H35.1019C35.6304 43.9471 36.058 43.5195 36.058 42.991C36.058 42.4626 35.6304 42.0349 35.1019 42.0349Z" fill="white"/>
<path d="M35.5616 37.2549L34.2096 35.903C33.8362 35.5295 33.2311 35.5295 32.8576 35.903C32.4842 36.2764 32.4842 36.8815 32.8576 37.255L34.2096 38.6069C34.5832 38.9805 35.1881 38.9805 35.5616 38.6069C35.9351 38.2335 35.9351 37.6284 35.5616 37.2549Z" fill="white"/>
<path d="M35.5616 47.3759C35.1882 47.0024 34.5831 47.0023 34.2096 47.3759L32.8576 48.7279C32.4842 49.1013 32.4842 49.7064 32.8576 50.0799C33.2311 50.4534 33.8361 50.4534 34.2096 50.0799L35.5616 48.7279C35.9351 48.3544 35.9351 47.7493 35.5616 47.3759Z" fill="white"/>
<path d="M63.9127 42.0349H62.0004C61.4719 42.0349 61.0443 42.4626 61.0443 42.991C61.0443 43.5195 61.4719 43.9471 62.0004 43.9471H63.9127C64.4411 43.9471 64.8688 43.5195 64.8688 42.991C64.8688 42.4626 64.4411 42.0349 63.9127 42.0349Z" fill="white"/>
<path d="M64.2452 35.903C63.8718 35.5295 63.2667 35.5295 62.8932 35.903L61.5412 37.255C61.1678 37.6285 61.1678 38.2336 61.5412 38.607C61.9147 38.9805 62.5197 38.9805 62.8932 38.607L64.2452 37.255C64.6187 36.8815 64.6187 36.2764 64.2452 35.903Z" fill="white"/>
<path d="M64.2452 48.7278L62.8932 47.3758C62.5198 47.0024 61.9147 47.0024 61.5412 47.3758C61.1678 47.7493 61.1678 48.3544 61.5412 48.7278L62.8932 50.0798C63.2668 50.4533 63.8717 50.4533 64.2452 50.0798C64.6187 49.7063 64.6187 49.1012 64.2452 48.7278Z" fill="white"/>
<path d="M55.7822 33.0639C53.0856 30.8716 49.5479 30.0276 46.0866 30.7558C41.771 31.6568 38.2565 35.2239 37.3415 39.5376C36.5637 43.208 37.5236 46.8924 39.9736 49.6469C40.9642 50.7615 41.5684 52.1069 41.7666 53.5087H44.7262V44.9037C44.7262 44.5334 47.5298 39.0705 47.6954 38.7393C48.0203 38.0913 49.081 38.0913 49.4059 38.7393C49.5794 39.0862 52.3751 44.5519 52.3751 44.9037V53.5087H55.338C55.5429 52.1135 56.1649 50.7468 57.1837 49.5844C59.0157 47.4956 60.0241 44.814 60.0241 42.0352C60.0241 38.5647 58.4778 35.2544 55.7822 33.0639Z" fill="white"/>
<path d="M48.5507 46.731C47.9042 46.731 47.2603 46.6184 46.6384 46.4127V53.5079H50.4629V46.4127C49.8411 46.6184 49.1971 46.731 48.5507 46.731Z" fill="white"/>
<path d="M41.8585 55.4207V56.3768C41.8585 57.9585 43.1452 59.2452 44.7268 59.2452H52.3758C53.9575 59.2452 55.2441 57.9585 55.2441 56.3768V55.4207H41.8585Z" fill="white"/>
<path d="M48.5507 41.3056L46.9706 44.4658C47.9917 44.8841 49.1096 44.8841 50.1307 44.4658L48.5507 41.3056Z" fill="white"/>
<path d="M43.9459 61.1576C44.3419 62.2681 45.3933 63.1336 46.6381 63.1336H50.4626C51.7075 63.1336 52.7588 62.2681 53.1548 61.1576H43.9459Z" fill="white"/>
</g>
</g>
<defs>
<filter id="filter0_d_1319_4789" x="-0.000371508" y="2.96693" width="97.9531" height="96.0332" filterUnits="userSpaceOnUse" color-interpolation-filters="sRGB">
<feFlood flood-opacity="0" result="BackgroundImageFix"/>
<feColorMatrix in="SourceAlpha" type="matrix" values="0 0 0 0 0 0 0 0 0 0 0 0 0 0 0 0 0 0 127 0" result="hardAlpha"/>
<feOffset dy="3.91972"/>
<feGaussianBlur stdDeviation="5.87958"/>
<feComposite in2="hardAlpha" operator="out"/>
<feColorMatrix type="matrix" values="0 0 0 0 0 0 0 0 0 0 0 0 0 0 0 0 0 0 0.1 0"/>
<feBlend mode="normal" in2="BackgroundImageFix" result="effect1_dropShadow_1319_4789"/>
<feBlend mode="normal" in="SourceGraphic" in2="effect1_dropShadow_1319_4789" result="shape"/>
</filter>
<clipPath id="clip0_1319_4789">
<rect width="32.3377" height="32.3377" fill="white" transform="translate(32.2336 30.499) scale(1.00921)"/>
</clipPath>
</defs>
</svg>
