<svg width="114" height="119" viewBox="0 0 114 119" fill="none" xmlns="http://www.w3.org/2000/svg">
<g filter="url(#filter0_d_1319_4863)">
<rect x="12" y="13" width="90" height="90" rx="45" fill="white"/>
<rect x="12.25" y="13.25" width="89.5" height="89.5" rx="44.75" stroke="black" stroke-opacity="0.21" stroke-width="0.5"/>
<path d="M46.2453 48.3442C46.7449 48.3442 47.1498 47.9392 47.1498 47.4397C47.1498 46.9401 46.7449 46.5352 46.2453 46.5352C45.7458 46.5352 45.3408 46.9401 45.3408 47.4397C45.3408 47.9392 45.7458 48.3442 46.2453 48.3442Z" fill="#263238"/>
<path d="M49.4309 48.3442C49.9304 48.3442 50.3354 47.9392 50.3354 47.4397C50.3354 46.9401 49.9304 46.5352 49.4309 46.5352C48.9313 46.5352 48.5264 46.9401 48.5264 47.4397C48.5264 47.9392 48.9313 48.3442 49.4309 48.3442Z" fill="#263238"/>
<path d="M52.6174 48.3442C53.1169 48.3442 53.5219 47.9392 53.5219 47.4397C53.5219 46.9401 53.1169 46.5352 52.6174 46.5352C52.1178 46.5352 51.7129 46.9401 51.7129 47.4397C51.7129 47.9392 52.1178 48.3442 52.6174 48.3442Z" fill="#263238"/>
<path d="M61.5799 62.7141L64.5308 72.4138C64.8166 73.3532 66.1396 73.3735 66.4534 72.442L67.8349 68.3425C67.9362 68.0432 68.1702 67.8092 68.4694 67.708L72.5689 66.3265C73.4993 66.0126 73.4802 64.6896 72.5408 64.4038L62.841 61.453C62.0682 61.219 61.3459 61.9412 61.5799 62.7141Z" fill="#A41A1E"/>
<path d="M59.967 63.2046C59.715 62.3789 59.8658 61.507 60.3788 60.8151C60.8873 60.13 61.695 59.7205 62.5421 59.7205C62.8088 59.7205 63.0743 59.7599 63.333 59.8386L72.054 62.4903V47.0541C72.054 44.7479 70.1753 42.8691 67.869 42.8691H44.9291C42.6229 42.8691 40.7441 44.7479 40.7441 47.0541V65.7854C40.7441 68.1029 42.6229 69.9816 44.9404 69.9816H62.0269L59.967 63.2046ZM42.7691 50.0016V47.0553C42.7691 45.8639 43.7378 44.8953 44.9291 44.8953H67.8679C69.0593 44.8953 70.0279 45.8639 70.0279 47.0553V50.0016H42.7691Z" fill="#263238"/>
</g>
<defs>
<filter id="filter0_d_1319_4863" x="0" y="5" width="114" height="114" filterUnits="userSpaceOnUse" color-interpolation-filters="sRGB">
<feFlood flood-opacity="0" result="BackgroundImageFix"/>
<feColorMatrix in="SourceAlpha" type="matrix" values="0 0 0 0 0 0 0 0 0 0 0 0 0 0 0 0 0 0 127 0" result="hardAlpha"/>
<feOffset dy="4"/>
<feGaussianBlur stdDeviation="6"/>
<feComposite in2="hardAlpha" operator="out"/>
<feColorMatrix type="matrix" values="0 0 0 0 0 0 0 0 0 0 0 0 0 0 0 0 0 0 0.1 0"/>
<feBlend mode="normal" in2="BackgroundImageFix" result="effect1_dropShadow_1319_4863"/>
<feBlend mode="normal" in="SourceGraphic" in2="effect1_dropShadow_1319_4863" result="shape"/>
</filter>
</defs>
</svg>
