<svg width="114" height="117" viewBox="0 0 114 117" fill="none" xmlns="http://www.w3.org/2000/svg">
<g filter="url(#filter0_d_1319_4776)">
<rect x="12" y="11" width="90" height="90" rx="45" fill="#121212"/>
<rect x="12.25" y="11.25" width="89.5" height="89.5" rx="44.75" stroke="black" stroke-opacity="0.21" stroke-width="0.5"/>
<g clip-path="url(#clip0_1319_4776)">
<path d="M47.9205 47.7217L44.8823 47.9626C44.0369 48.0297 43.2839 48.4846 42.8164 49.2105L39.3125 54.6507C38.9579 55.2013 38.9015 55.8902 39.1616 56.4938C39.4217 57.0974 39.9563 57.518 40.5916 57.619L43.3735 58.0613C44.0242 54.5161 45.582 50.9797 47.9205 47.7217Z" fill="white"/>
<path d="M54.5264 69.5096L54.9573 72.3653C55.0557 73.0175 55.4654 73.5662 56.0533 73.8332C56.2979 73.9443 56.5568 73.9992 56.8144 73.9992C57.1762 73.9992 57.5356 73.8909 57.8488 73.6783L63.1484 70.0814C63.8556 69.6014 64.2987 68.8284 64.3639 67.9607L64.5986 64.8418C61.4248 67.2425 57.9799 68.8416 54.5264 69.5096Z" fill="white"/>
<path d="M53.4801 67.5309C53.5767 67.5309 53.6738 67.5227 53.7707 67.5062C55.2176 67.2578 56.6121 66.8395 57.9424 66.2919L46.5088 54.5547C45.9753 55.9202 45.5678 57.3518 45.3259 58.8371C45.2305 59.4226 45.4218 60.0191 45.8307 60.4388L52.2104 66.988C52.5499 67.3363 53.008 67.5309 53.4801 67.5309Z" fill="white"/>
<path d="M71.2728 53.961C74.0707 48.4082 74.1744 42.5403 74.0281 39.7882C73.9781 38.8453 73.2457 38.0935 72.3271 38.0421C71.8906 38.0176 71.3733 38 70.7902 38C67.7925 38 63.0492 38.4661 58.5209 40.8706C54.9221 42.7814 50.2031 46.989 47.4189 52.5184C47.4518 52.5448 47.4839 52.5728 47.5142 52.6039L59.8431 65.26C59.8733 65.2911 59.9005 65.324 59.9262 65.3577C65.3127 62.4996 69.4114 57.6554 71.2728 53.961ZM59.3906 45.6106C61.3934 43.5546 64.6524 43.5544 66.6554 45.6106C67.6256 46.6065 68.16 47.9309 68.16 49.3394C68.16 50.748 67.6256 52.0723 66.6554 53.0683C65.654 54.0962 64.3383 54.6102 63.023 54.6104C61.7073 54.6104 60.3922 54.0964 59.3906 53.0683C58.4203 52.0723 57.8859 50.748 57.8859 49.3394C57.8859 47.9309 58.4203 46.6065 59.3906 45.6106Z" fill="white"/>
<path d="M60.8432 51.5766C62.0449 52.8102 64.0004 52.8103 65.2021 51.5766C65.7843 50.979 66.1049 50.1844 66.1049 49.3393C66.1049 48.4941 65.7843 47.6996 65.2021 47.102C64.6013 46.4851 63.812 46.1768 63.0227 46.1768C62.2334 46.1768 61.4441 46.4851 60.8433 47.102C60.2611 47.6996 59.9404 48.4941 59.9404 49.3393C59.9404 50.1844 60.2611 50.979 60.8432 51.5766Z" fill="white"/>
<path d="M40.0489 67.6671C40.3119 67.6671 40.5748 67.5641 40.7754 67.3581L44.1297 63.9147C44.531 63.5028 44.531 62.8351 44.1297 62.4232C43.7286 62.0113 43.078 62.0113 42.6768 62.4232L39.3224 65.8666C38.9212 66.2785 38.9212 66.9462 39.3224 67.3581C39.523 67.5641 39.786 67.6671 40.0489 67.6671Z" fill="white"/>
<path d="M47.203 65.5784C46.8018 65.1666 46.1512 65.1666 45.75 65.5784L39.3009 72.1987C38.8997 72.6106 38.8997 73.2784 39.3009 73.6903C39.5015 73.8962 39.7645 73.9991 40.0274 73.9991C40.2904 73.9991 40.5533 73.8962 40.7539 73.6902L47.2029 67.07C47.6042 66.6581 47.6042 65.9903 47.203 65.5784Z" fill="white"/>
<path d="M48.8242 68.7347L45.4699 72.1781C45.0686 72.59 45.0686 73.2578 45.4699 73.6697C45.6705 73.8756 45.9334 73.9786 46.1963 73.9786C46.4592 73.9786 46.7222 73.8757 46.9228 73.6697L50.2771 70.2262C50.6784 69.8143 50.6784 69.1466 50.2771 68.7347C49.876 68.3228 49.2254 68.3228 48.8242 68.7347Z" fill="white"/>
</g>
</g>
<defs>
<filter id="filter0_d_1319_4776" x="0" y="3" width="114" height="114" filterUnits="userSpaceOnUse" color-interpolation-filters="sRGB">
<feFlood flood-opacity="0" result="BackgroundImageFix"/>
<feColorMatrix in="SourceAlpha" type="matrix" values="0 0 0 0 0 0 0 0 0 0 0 0 0 0 0 0 0 0 127 0" result="hardAlpha"/>
<feOffset dy="4"/>
<feGaussianBlur stdDeviation="6"/>
<feComposite in2="hardAlpha" operator="out"/>
<feColorMatrix type="matrix" values="0 0 0 0 0 0 0 0 0 0 0 0 0 0 0 0 0 0 0.1 0"/>
<feBlend mode="normal" in2="BackgroundImageFix" result="effect1_dropShadow_1319_4776"/>
<feBlend mode="normal" in="SourceGraphic" in2="effect1_dropShadow_1319_4776" result="shape"/>
</filter>
<clipPath id="clip0_1319_4776">
<rect width="35.069" height="36" fill="white" transform="translate(39 38)"/>
</clipPath>
</defs>
</svg>
