<svg width="968" height="129" viewBox="0 0 968 129" fill="none" xmlns="http://www.w3.org/2000/svg">
<path d="M26.8786 33.5693C26.8786 36.0581 26.266 38.2023 25.0407 40.0019C23.8346 41.8015 22.0925 43.1799 19.8143 44.1371C17.5552 45.0943 14.8559 45.5729 11.7162 45.5729C10.1846 45.5729 8.72007 45.4868 7.32252 45.3145C5.92498 45.1422 4.60401 44.8933 3.35962 44.5678C2.13437 44.2232 1.01442 43.8116 -0.000236442 43.333V36.843C1.70362 37.5897 3.6085 38.2693 5.71439 38.8819C7.82028 39.4754 9.96446 39.7721 12.1469 39.7721C13.9274 39.7721 15.4015 39.5424 16.5693 39.0829C17.7563 38.6043 18.6369 37.9343 19.2112 37.0728C19.7856 36.1921 20.0727 35.1679 20.0727 34.0001C20.0727 32.7557 19.7377 31.7028 19.0677 30.8413C18.3976 29.9798 17.3829 29.1948 16.0237 28.4865C14.6836 27.759 12.9989 26.9836 10.9695 26.1604C9.59114 25.6052 8.27017 24.9735 7.00664 24.2651C5.76225 23.5568 4.65187 22.724 3.6755 21.7668C2.69913 20.8096 1.92378 19.68 1.34945 18.3782C0.794259 17.0572 0.516664 15.5065 0.516664 13.7261C0.516664 11.3522 1.08143 9.32287 2.21095 7.63816C3.35962 5.95344 4.96775 4.66119 7.03536 3.7614C9.1221 2.86161 11.5534 2.41172 14.3294 2.41172C16.531 2.41172 18.5986 2.64145 20.5322 3.10092C22.4849 3.56039 24.3994 4.2113 26.2755 5.05365L24.0931 10.596C22.3701 9.88763 20.6949 9.32287 19.0677 8.90169C17.4595 8.48051 15.8131 8.26992 14.1284 8.26992C12.6734 8.26992 11.4386 8.49009 10.4239 8.93041C9.40927 9.37073 8.63392 9.99293 8.09787 10.797C7.58097 11.5819 7.32252 12.52 7.32252 13.6112C7.32252 14.8365 7.61926 15.8703 8.21274 16.7126C8.82536 17.5358 9.76344 18.2921 11.027 18.9813C12.3097 19.6705 13.9561 20.4362 15.9662 21.2786C18.2827 22.2358 20.245 23.2409 21.8532 24.2938C23.4805 25.3468 24.7248 26.6103 25.5863 28.0844C26.4478 29.5394 26.8786 31.3677 26.8786 33.5693ZM43.1782 40.1167C44.0588 40.1167 44.9299 40.0402 45.7914 39.887C46.6529 39.7147 47.4378 39.5137 48.1462 39.284V44.3955C47.3996 44.721 46.4328 44.9986 45.2458 45.2283C44.0588 45.4581 42.824 45.5729 41.5413 45.5729C39.7418 45.5729 38.1241 45.2762 36.6882 44.6827C35.2524 44.0701 34.1133 43.0267 33.2709 41.5526C32.4286 40.0785 32.0074 38.0396 32.0074 35.4359V18.3495H27.6712V15.3342L32.3233 12.9507L34.5345 6.14489H38.7845V13.2092H47.8877V18.3495H38.7845V35.3498C38.7845 36.9579 39.1866 38.1544 39.9906 38.9394C40.7947 39.7243 41.8572 40.1167 43.1782 40.1167ZM67.7769 12.6061C68.313 12.6061 68.8969 12.6349 69.5286 12.6923C70.1604 12.7497 70.706 12.8263 71.1655 12.922L70.5337 19.2397C70.1317 19.1248 69.6339 19.0387 69.0405 18.9813C68.4661 18.9238 67.9492 18.8951 67.4898 18.8951C66.2837 18.8951 65.135 19.0961 64.0438 19.4982C62.9525 19.881 61.9857 20.4745 61.1434 21.2786C60.301 22.0635 59.6405 23.0495 59.1619 24.2364C58.6833 25.4234 58.444 26.8018 58.444 28.3716V44.9986H51.6669V13.2092H56.9507L57.8697 18.809H58.1855C58.8173 17.6794 59.6022 16.6456 60.5403 15.7076C61.4784 14.7695 62.5505 14.0228 63.7566 13.4676C64.9818 12.8933 66.3219 12.6061 67.7769 12.6061ZM86.5749 12.6061C90.5952 12.6061 93.6296 13.4964 95.6781 15.2768C97.7457 17.0572 98.7795 19.8332 98.7795 23.6046V44.9986H93.9838L92.6915 40.4901H92.4618C91.562 41.6387 90.6335 42.5864 89.6763 43.333C88.7191 44.0797 87.6087 44.6348 86.3451 44.9986C85.1008 45.3815 83.5788 45.5729 81.7792 45.5729C79.8839 45.5729 78.1896 45.2283 76.6963 44.5391C75.2031 43.8308 74.0257 42.7587 73.1642 41.3228C72.3027 39.887 71.8719 38.0683 71.8719 35.8667C71.8719 32.593 73.0876 30.1329 75.5189 28.4865C77.9694 26.8401 81.6643 25.9307 86.6036 25.7584L92.1172 25.5574V23.8918C92.1172 21.6902 91.6003 20.1203 90.5665 19.1823C89.5518 18.2442 88.116 17.7752 86.259 17.7752C84.67 17.7752 83.1289 18.0049 81.6356 18.4644C80.1423 18.9238 78.6874 19.4886 77.2707 20.1586L75.0882 15.3917C76.6389 14.5685 78.4002 13.8984 80.3721 13.3815C82.3631 12.8646 84.4307 12.6061 86.5749 12.6061ZM92.0885 29.8075L87.982 29.951C84.6126 30.0659 82.2482 30.6402 80.889 31.674C79.5297 32.7078 78.8501 34.1245 78.8501 35.9241C78.8501 37.494 79.3191 38.6426 80.2572 39.3701C81.1953 40.0785 82.4301 40.4326 83.9617 40.4326C86.2973 40.4326 88.2309 39.7721 89.7624 38.4512C91.3131 37.1111 92.0885 35.1488 92.0885 32.5643V29.8075ZM117.118 40.1167C117.999 40.1167 118.87 40.0402 119.731 39.887C120.593 39.7147 121.378 39.5137 122.086 39.284V44.3955C121.339 44.721 120.373 44.9986 119.186 45.2283C117.999 45.4581 116.764 45.5729 115.481 45.5729C113.682 45.5729 112.064 45.2762 110.628 44.6827C109.192 44.0701 108.053 43.0267 107.211 41.5526C106.368 40.0785 105.947 38.0396 105.947 35.4359V18.3495H101.611V15.3342L106.263 12.9507L108.474 6.14489H112.724V13.2092H121.827V18.3495H112.724V35.3498C112.724 36.9579 113.126 38.1544 113.93 38.9394C114.734 39.7243 115.797 40.1167 117.118 40.1167ZM138.271 12.6061C141.104 12.6061 143.535 13.1901 145.565 14.3579C147.594 15.5257 149.154 17.1817 150.246 19.3259C151.337 21.47 151.882 24.0354 151.882 27.0219V30.6402H130.661C130.737 33.7225 131.561 36.0964 133.13 37.762C134.719 39.4275 136.94 40.2603 139.793 40.2603C141.822 40.2603 143.641 40.0689 145.249 39.686C146.876 39.284 148.551 38.7001 150.274 37.9343V43.4192C148.685 44.1658 147.068 44.7114 145.421 45.056C143.775 45.4006 141.803 45.5729 139.505 45.5729C136.385 45.5729 133.638 44.9699 131.264 43.7638C128.909 42.5385 127.062 40.7198 125.721 38.3076C124.401 35.8954 123.74 32.8993 123.74 29.3193C123.74 25.7584 124.343 22.7336 125.549 20.2448C126.755 17.756 128.45 15.8607 130.632 14.5589C132.814 13.2571 135.361 12.6061 138.271 12.6061ZM138.271 17.689C136.146 17.689 134.423 18.3782 133.102 19.7566C131.8 21.135 131.034 23.1547 130.804 25.8158H145.278C145.258 24.2268 144.99 22.8197 144.473 21.5945C143.976 20.3692 143.21 19.412 142.176 18.7228C141.161 18.0336 139.86 17.689 138.271 17.689ZM165.626 59.1272C161.319 59.1272 158.016 58.3519 155.719 56.8011C153.422 55.2504 152.273 53.0776 152.273 50.2825C152.273 48.3297 152.886 46.6737 154.111 45.3145C155.336 43.9744 157.088 43.0458 159.366 42.5289C158.504 42.1461 157.758 41.5526 157.126 40.7485C156.513 39.9253 156.207 39.0159 156.207 38.0204C156.207 36.8335 156.542 35.8188 157.212 34.9765C157.882 34.1341 158.887 33.3205 160.227 32.5355C158.562 31.8272 157.222 30.6785 156.207 29.0895C155.212 27.4814 154.714 25.5957 154.714 23.4323C154.714 21.135 155.202 19.1823 156.178 17.5741C157.155 15.9469 158.581 14.712 160.457 13.8697C162.333 13.0082 164.602 12.5774 167.263 12.5774C167.837 12.5774 168.46 12.6157 169.13 12.6923C169.819 12.7497 170.451 12.8263 171.025 12.922C171.618 12.9986 172.068 13.0848 172.375 13.1805H183.373V16.9424L177.974 17.9475C178.491 18.6749 178.903 19.5077 179.209 20.4458C179.516 21.3647 179.669 22.3698 179.669 23.4611C179.669 26.7539 178.53 29.348 176.251 31.2433C173.992 33.1194 170.872 34.0575 166.89 34.0575C165.933 34.0192 165.004 33.9427 164.104 33.8278C163.415 34.249 162.889 34.718 162.525 35.2349C162.161 35.7327 161.979 36.2974 161.979 36.9292C161.979 37.4461 162.161 37.8673 162.525 38.1927C162.889 38.499 163.425 38.7288 164.133 38.8819C164.86 39.0351 165.741 39.1117 166.775 39.1117H172.26C175.744 39.1117 178.405 39.8487 180.243 41.3228C182.081 42.797 183 44.9603 183 47.8128C183 51.4311 181.507 54.2166 178.52 56.1694C175.533 58.1413 171.236 59.1272 165.626 59.1272ZM165.885 54.3889C168.239 54.3889 170.221 54.1592 171.829 53.6997C173.437 53.2403 174.653 52.5798 175.476 51.7183C176.299 50.8759 176.711 49.8709 176.711 48.703C176.711 47.6692 176.452 46.8747 175.935 46.3196C175.419 45.7644 174.643 45.3815 173.609 45.1709C172.576 44.9603 171.293 44.855 169.761 44.855H164.765C163.52 44.855 162.42 45.0464 161.462 45.4293C160.505 45.8314 159.758 46.4057 159.222 47.1523C158.705 47.899 158.447 48.7988 158.447 49.8517C158.447 51.3067 159.088 52.4266 160.371 53.2116C161.673 53.9965 163.511 54.3889 165.885 54.3889ZM167.206 29.6352C169.178 29.6352 170.642 29.0991 171.599 28.027C172.556 26.9358 173.035 25.4042 173.035 23.4323C173.035 21.2882 172.537 19.68 171.542 18.6079C170.565 17.5358 169.11 16.9998 167.177 16.9998C165.282 16.9998 163.836 17.5454 162.841 18.6367C161.864 19.7279 161.376 21.3456 161.376 23.4898C161.376 25.4234 161.864 26.9358 162.841 28.027C163.836 29.0991 165.291 29.6352 167.206 29.6352ZM192.982 13.2092V44.9986H186.233V13.2092H192.982ZM189.651 1.03332C190.684 1.03332 191.575 1.31091 192.321 1.8661C193.087 2.42129 193.47 3.37851 193.47 4.73777C193.47 6.07788 193.087 7.03511 192.321 7.60944C191.575 8.16463 190.684 8.44222 189.651 8.44222C188.579 8.44222 187.669 8.16463 186.923 7.60944C186.195 7.03511 185.831 6.07788 185.831 4.73777C185.831 3.37851 186.195 2.42129 186.923 1.8661C187.669 1.31091 188.579 1.03332 189.651 1.03332ZM212.526 45.5729C209.521 45.5729 206.917 44.989 204.715 43.8212C202.514 42.6534 200.819 40.8634 199.633 38.4512C198.446 36.039 197.852 32.9759 197.852 29.2618C197.852 25.3947 198.503 22.2358 199.805 19.7853C201.107 17.3348 202.906 15.5257 205.204 14.3579C207.52 13.1901 210.172 12.6061 213.158 12.6061C215.053 12.6061 216.767 12.7976 218.298 13.1805C219.849 13.5442 221.16 13.9941 222.233 14.5302L220.222 19.9289C219.055 19.4503 217.858 19.0483 216.633 18.7228C215.408 18.3973 214.23 18.2346 213.101 18.2346C211.244 18.2346 209.693 18.6462 208.449 19.4694C207.223 20.2927 206.304 21.5179 205.692 23.1452C205.098 24.7725 204.802 26.7922 204.802 29.2044C204.802 31.54 205.108 33.5119 205.72 35.12C206.333 36.709 207.242 37.9151 208.449 38.7383C209.655 39.5424 211.138 39.9444 212.9 39.9444C214.642 39.9444 216.202 39.7339 217.58 39.3127C218.959 38.8915 220.261 38.3459 221.486 37.6758V43.534C220.28 44.2232 218.988 44.7306 217.609 45.056C216.231 45.4006 214.536 45.5729 212.526 45.5729ZM690.826 18.3495H683.101V44.9986H676.353V18.3495H671.155V15.1045L676.353 13.123V10.9119C676.353 8.21249 676.774 6.06831 677.616 4.47932C678.478 2.89033 679.703 1.75123 681.292 1.06203C682.9 0.353687 684.815 -0.000485251 687.035 -0.000485251C688.49 -0.000485251 689.821 0.123954 691.027 0.372832C692.233 0.602565 693.248 0.870588 694.071 1.1769L692.319 6.28847C691.668 6.07788 690.941 5.88644 690.137 5.71414C689.333 5.52269 688.471 5.42697 687.552 5.42697C686.021 5.42697 684.891 5.90558 684.164 6.86281C683.455 7.82003 683.101 9.21758 683.101 11.0554V13.2092H690.826V18.3495ZM721.455 29.0321C721.455 31.674 721.111 34.0192 720.421 36.0677C719.732 38.1161 718.727 39.8487 717.406 41.2654C716.085 42.663 714.496 43.7351 712.639 44.4817C710.782 45.2092 708.686 45.5729 706.35 45.5729C704.168 45.5729 702.167 45.2092 700.348 44.4817C698.53 43.7351 696.95 42.663 695.61 41.2654C694.289 39.8487 693.265 38.1161 692.537 36.0677C691.81 34.0192 691.446 31.674 691.446 29.0321C691.446 25.5287 692.049 22.5613 693.255 20.1299C694.481 17.6794 696.223 15.8128 698.482 14.5302C700.741 13.2475 703.431 12.6061 706.551 12.6061C709.48 12.6061 712.065 13.2475 714.305 14.5302C716.545 15.8128 718.296 17.6794 719.56 20.1299C720.823 22.5804 721.455 25.5478 721.455 29.0321ZM698.396 29.0321C698.396 31.3486 698.673 33.33 699.228 34.9765C699.803 36.6229 700.683 37.8864 701.87 38.7671C703.057 39.6286 704.589 40.0593 706.465 40.0593C708.341 40.0593 709.873 39.6286 711.06 38.7671C712.247 37.8864 713.118 36.6229 713.673 34.9765C714.228 33.33 714.506 31.3486 714.506 29.0321C714.506 26.7156 714.228 24.7533 713.673 23.1452C713.118 21.5179 712.247 20.2831 711.06 19.4407C709.873 18.5792 708.332 18.1485 706.436 18.1485C703.641 18.1485 701.602 19.0865 700.32 20.9627C699.037 22.8389 698.396 25.5287 698.396 29.0321ZM742.378 12.6061C742.914 12.6061 743.498 12.6349 744.13 12.6923C744.762 12.7497 745.307 12.8263 745.767 12.922L745.135 19.2397C744.733 19.1248 744.235 19.0387 743.642 18.9813C743.067 18.9238 742.55 18.8951 742.091 18.8951C740.885 18.8951 739.736 19.0961 738.645 19.4982C737.554 19.881 736.587 20.4745 735.745 21.2786C734.902 22.0635 734.242 23.0495 733.763 24.2364C733.285 25.4234 733.045 26.8018 733.045 28.3716V44.9986H726.268V13.2092H731.552L732.471 18.809H732.787C733.419 17.6794 734.203 16.6456 735.142 15.7076C736.08 14.7695 737.152 14.0228 738.358 13.4676C739.583 12.8933 740.923 12.6061 742.378 12.6061ZM785.976 33.5693C785.976 36.0581 785.363 38.2023 784.138 40.0019C782.932 41.8015 781.19 43.1799 778.912 44.1371C776.653 45.0943 773.953 45.5729 770.813 45.5729C769.282 45.5729 767.817 45.4868 766.42 45.3145C765.022 45.1422 763.701 44.8933 762.457 44.5678C761.232 44.2232 760.112 43.8116 759.097 43.333V36.843C760.801 37.5897 762.706 38.2693 764.812 38.8819C766.918 39.4754 769.062 39.7721 771.244 39.7721C773.025 39.7721 774.499 39.5424 775.667 39.0829C776.854 38.6043 777.734 37.9343 778.309 37.0728C778.883 36.1921 779.17 35.1679 779.17 34.0001C779.17 32.7557 778.835 31.7028 778.165 30.8413C777.495 29.9798 776.48 29.1948 775.121 28.4865C773.781 27.759 772.096 26.9836 770.067 26.1604C768.688 25.6052 767.367 24.9735 766.104 24.2651C764.86 23.5568 763.749 22.724 762.773 21.7668C761.796 20.8096 761.021 19.68 760.447 18.3782C759.892 17.0572 759.614 15.5065 759.614 13.7261C759.614 11.3522 760.179 9.32287 761.308 7.63816C762.457 5.95344 764.065 4.66119 766.133 3.7614C768.219 2.86161 770.651 2.41172 773.427 2.41172C775.628 2.41172 777.696 2.64145 779.63 3.10092C781.582 3.56039 783.497 4.2113 785.373 5.05365L783.19 10.596C781.467 9.88763 779.792 9.32287 778.165 8.90169C776.557 8.48051 774.91 8.26992 773.226 8.26992C771.771 8.26992 770.536 8.49009 769.521 8.93041C768.507 9.37073 767.731 9.99293 767.195 10.797C766.678 11.5819 766.42 12.52 766.42 13.6112C766.42 14.8365 766.717 15.8703 767.31 16.7126C767.923 17.5358 768.861 18.2921 770.124 18.9813C771.407 19.6705 773.053 20.4362 775.064 21.2786C777.38 22.2358 779.342 23.2409 780.95 24.2938C782.578 25.3468 783.822 26.6103 784.684 28.0844C785.545 29.5394 785.976 31.3677 785.976 33.5693ZM826.369 12.6061C829.93 12.6061 832.61 13.5251 834.409 15.3629C836.228 17.2008 837.138 20.1491 837.138 24.2077V44.9986H830.389V25.4138C830.389 23.0016 829.92 21.1829 828.982 19.9576C828.044 18.7324 826.618 18.1198 824.703 18.1198C822.023 18.1198 820.089 18.9813 818.902 20.7043C817.735 22.4081 817.151 24.8873 817.151 28.1419V44.9986H810.402V25.4138C810.402 23.8057 810.192 22.4655 809.771 21.3935C809.368 20.3022 808.746 19.4886 807.904 18.9525C807.062 18.3973 805.999 18.1198 804.716 18.1198C802.859 18.1198 801.376 18.5409 800.265 19.3833C799.174 20.2256 798.389 21.47 797.911 23.1165C797.432 24.7437 797.193 26.7443 797.193 29.1182V44.9986H790.444V13.2092H795.699L796.647 17.488H797.02C797.671 16.3776 798.475 15.4682 799.432 14.7599C800.409 14.0324 801.491 13.4964 802.677 13.1518C803.864 12.788 805.099 12.6061 806.382 12.6061C808.756 12.6061 810.756 13.0273 812.384 13.8697C814.011 14.6929 815.227 15.9564 816.031 17.6603H816.548C817.543 15.9373 818.931 14.6642 820.712 13.841C822.492 13.0178 824.378 12.6061 826.369 12.6061ZM856.079 12.6061C860.099 12.6061 863.134 13.4964 865.182 15.2768C867.25 17.0572 868.284 19.8332 868.284 23.6046V44.9986H863.488L862.196 40.4901H861.966C861.066 41.6387 860.138 42.5864 859.18 43.333C858.223 44.0797 857.113 44.6348 855.849 44.9986C854.605 45.3815 853.083 45.5729 851.283 45.5729C849.388 45.5729 847.694 45.2283 846.2 44.5391C844.707 43.8308 843.53 42.7587 842.668 41.3228C841.807 39.887 841.376 38.0683 841.376 35.8667C841.376 32.593 842.592 30.1329 845.023 28.4865C847.474 26.8401 851.168 25.9307 856.108 25.7584L861.621 25.5574V23.8918C861.621 21.6902 861.104 20.1203 860.071 19.1823C859.056 18.2442 857.62 17.7752 855.763 17.7752C854.174 17.7752 852.633 18.0049 851.14 18.4644C849.647 18.9238 848.192 19.4886 846.775 20.1586L844.592 15.3917C846.143 14.5685 847.904 13.8984 849.876 13.3815C851.867 12.8646 853.935 12.6061 856.079 12.6061ZM861.593 29.8075L857.486 29.951C854.117 30.0659 851.752 30.6402 850.393 31.674C849.034 32.7078 848.354 34.1245 848.354 35.9241C848.354 37.494 848.823 38.6426 849.761 39.3701C850.699 40.0785 851.934 40.4326 853.466 40.4326C855.801 40.4326 857.735 39.7721 859.267 38.4512C860.817 37.1111 861.593 35.1488 861.593 32.5643V29.8075ZM890.901 12.6061C891.437 12.6061 892.021 12.6349 892.653 12.6923C893.284 12.7497 893.83 12.8263 894.29 12.922L893.658 19.2397C893.256 19.1248 892.758 19.0387 892.164 18.9813C891.59 18.9238 891.073 18.8951 890.614 18.8951C889.408 18.8951 888.259 19.0961 887.168 19.4982C886.077 19.881 885.11 20.4745 884.267 21.2786C883.425 22.0635 882.765 23.0495 882.286 24.2364C881.807 25.4234 881.568 26.8018 881.568 28.3716V44.9986H874.791V13.2092H880.075L880.994 18.809H881.31C881.941 17.6794 882.726 16.6456 883.664 15.7076C884.602 14.7695 885.674 14.0228 886.881 13.4676C888.106 12.8933 889.446 12.6061 890.901 12.6061ZM909.067 40.1167C909.948 40.1167 910.819 40.0402 911.68 39.887C912.542 39.7147 913.327 39.5137 914.035 39.284V44.3955C913.288 44.721 912.322 44.9986 911.135 45.2283C909.948 45.4581 908.713 45.5729 907.43 45.5729C905.631 45.5729 904.013 45.2762 902.577 44.6827C901.141 44.0701 900.002 43.0267 899.16 41.5526C898.317 40.0785 897.896 38.0396 897.896 35.4359V18.3495H893.56V15.3342L898.212 12.9507L900.423 6.14489H904.673V13.2092H913.777V18.3495H904.673V35.3498C904.673 36.9579 905.075 38.1544 905.88 38.9394C906.684 39.7243 907.746 40.1167 909.067 40.1167ZM930.22 12.6061C933.053 12.6061 935.485 13.1901 937.514 14.3579C939.543 15.5257 941.104 17.1817 942.195 19.3259C943.286 21.47 943.832 24.0354 943.832 27.0219V30.6402H922.61C922.687 33.7225 923.51 36.0964 925.08 37.762C926.669 39.4275 928.889 40.2603 931.742 40.2603C933.771 40.2603 935.59 40.0689 937.198 39.686C938.825 39.284 940.5 38.7001 942.223 37.9343V43.4192C940.634 44.1658 939.017 44.7114 937.37 45.056C935.724 45.4006 933.752 45.5729 931.455 45.5729C928.334 45.5729 925.587 44.9699 923.213 43.7638C920.858 42.5385 919.011 40.7198 917.671 38.3076C916.35 35.8954 915.689 32.8993 915.689 29.3193C915.689 25.7584 916.292 22.7336 917.498 20.2448C918.704 17.756 920.399 15.8607 922.581 14.5589C924.764 13.2571 927.31 12.6061 930.22 12.6061ZM930.22 17.689C928.095 17.689 926.372 18.3782 925.051 19.7566C923.749 21.135 922.983 23.1547 922.754 25.8158H937.227C937.208 24.2268 936.94 22.8197 936.423 21.5945C935.925 20.3692 935.159 19.412 934.125 18.7228C933.111 18.0336 931.809 17.689 930.22 17.689ZM964.611 12.6061C965.147 12.6061 965.731 12.6349 966.363 12.6923C966.994 12.7497 967.54 12.8263 968 12.922L967.368 19.2397C966.966 19.1248 966.468 19.0387 965.874 18.9813C965.3 18.9238 964.783 18.8951 964.324 18.8951C963.118 18.8951 961.969 19.0961 960.878 19.4982C959.787 19.881 958.82 20.4745 957.977 21.2786C957.135 22.0635 956.475 23.0495 955.996 24.2364C955.517 25.4234 955.278 26.8018 955.278 28.3716V44.9986H948.501V13.2092H953.785L954.704 18.809H955.02C955.651 17.6794 956.436 16.6456 957.374 15.7076C958.312 14.7695 959.385 14.0228 960.591 13.4676C961.816 12.8933 963.156 12.6061 964.611 12.6061ZM314.069 92.6234C314.069 97.3521 313.188 101.305 311.427 104.483C309.665 107.642 307.11 110.026 303.759 111.634C300.409 113.223 296.37 114.017 291.641 114.017H279.982V72.0336H292.904C297.25 72.0336 301.002 72.8185 304.161 74.3883C307.32 75.939 309.761 78.2459 311.484 81.3091C313.207 84.353 314.069 88.1245 314.069 92.6234ZM306.889 92.8245C306.889 89.3785 306.344 86.5451 305.253 84.3243C304.18 82.1036 302.591 80.4571 300.486 79.385C298.399 78.2938 295.824 77.7482 292.761 77.7482H286.874V108.245H291.756C296.829 108.245 300.62 106.953 303.128 104.369C305.635 101.784 306.889 97.936 306.889 92.8245ZM326.233 82.228V114.017H319.485V82.228H326.233ZM322.902 70.0521C323.936 70.0521 324.826 70.3297 325.572 70.8849C326.338 71.4401 326.721 72.3973 326.721 73.7566C326.721 75.0967 326.338 76.0539 325.572 76.6282C324.826 77.1834 323.936 77.461 322.902 77.461C321.83 77.461 320.92 77.1834 320.174 76.6282C319.446 76.0539 319.083 75.0967 319.083 73.7566C319.083 72.3973 319.446 71.4401 320.174 70.8849C320.92 70.3297 321.83 70.0521 322.902 70.0521ZM342.044 128.146C337.737 128.146 334.434 127.371 332.137 125.82C329.84 124.269 328.691 122.096 328.691 119.301C328.691 117.349 329.304 115.693 330.529 114.333C331.754 112.993 333.506 112.065 335.784 111.548C334.923 111.165 334.176 110.571 333.544 109.767C332.932 108.944 332.625 108.035 332.625 107.039C332.625 105.852 332.96 104.838 333.63 103.995C334.3 103.153 335.306 102.339 336.646 101.554C334.98 100.846 333.64 99.6973 332.625 98.1083C331.63 96.5002 331.132 94.6145 331.132 92.4511C331.132 90.1538 331.62 88.2011 332.597 86.5929C333.573 84.9657 334.999 83.7308 336.875 82.8885C338.752 82.027 341.02 81.5962 343.681 81.5962C344.256 81.5962 344.878 81.6345 345.548 81.7111C346.237 81.7685 346.869 81.8451 347.443 81.9408C348.037 82.0174 348.487 82.1036 348.793 82.1993H359.791V85.9612L354.393 86.9663C354.909 87.6937 355.321 88.5265 355.627 89.4646C355.934 90.3835 356.087 91.3886 356.087 92.4799C356.087 95.7727 354.948 98.3668 352.67 100.262C350.411 102.138 347.29 103.076 343.308 103.076C342.351 103.038 341.422 102.961 340.522 102.847C339.833 103.268 339.307 103.737 338.943 104.254C338.579 104.751 338.397 105.316 338.397 105.948C338.397 106.465 338.579 106.886 338.943 107.212C339.307 107.518 339.843 107.748 340.551 107.901C341.279 108.054 342.159 108.13 343.193 108.13H348.678C352.162 108.13 354.823 108.868 356.661 110.342C358.499 111.816 359.418 113.979 359.418 116.832C359.418 120.45 357.925 123.235 354.938 125.188C351.952 127.16 347.654 128.146 342.044 128.146ZM342.303 123.408C344.658 123.408 346.639 123.178 348.247 122.719C349.855 122.259 351.071 121.599 351.894 120.737C352.717 119.895 353.129 118.89 353.129 117.722C353.129 116.688 352.871 115.894 352.354 115.338C351.837 114.783 351.061 114.4 350.028 114.19C348.994 113.979 347.711 113.874 346.18 113.874H341.183C339.938 113.874 338.838 114.065 337.88 114.448C336.923 114.85 336.177 115.425 335.641 116.171C335.124 116.918 334.865 117.818 334.865 118.871C334.865 120.325 335.507 121.445 336.789 122.23C338.091 123.015 339.929 123.408 342.303 123.408ZM343.624 98.654C345.596 98.654 347.06 98.1179 348.017 97.0458C348.975 95.9546 349.453 94.423 349.453 92.4511C349.453 90.307 348.956 88.6988 347.96 87.6267C346.984 86.5546 345.529 86.0186 343.595 86.0186C341.7 86.0186 340.254 86.5642 339.259 87.6555C338.283 88.7467 337.794 90.3644 337.794 92.5086C337.794 94.4422 338.283 95.9546 339.259 97.0458C340.254 98.1179 341.709 98.654 343.624 98.654ZM369.4 82.228V114.017H362.651V82.228H369.4ZM366.069 70.0521C367.103 70.0521 367.993 70.3297 368.739 70.8849C369.505 71.4401 369.888 72.3973 369.888 73.7566C369.888 75.0967 369.505 76.0539 368.739 76.6282C367.993 77.1834 367.103 77.461 366.069 77.461C364.997 77.461 364.087 77.1834 363.341 76.6282C362.613 76.0539 362.249 75.0967 362.249 73.7566C362.249 72.3973 362.613 71.4401 363.341 70.8849C364.087 70.3297 364.997 70.0521 366.069 70.0521ZM387.968 109.136C388.849 109.136 389.72 109.059 390.581 108.906C391.443 108.734 392.228 108.532 392.936 108.303V113.414C392.189 113.74 391.223 114.017 390.036 114.247C388.849 114.477 387.614 114.592 386.331 114.592C384.532 114.592 382.914 114.295 381.478 113.702C380.042 113.089 378.903 112.046 378.061 110.571C377.219 109.097 376.797 107.058 376.797 104.455V87.3683H372.461V84.353L377.113 81.9695L379.324 75.1637H383.574V82.228H392.678V87.3683H383.574V104.369C383.574 105.977 383.977 107.173 384.781 107.958C385.585 108.743 386.647 109.136 387.968 109.136ZM408.92 81.6249C412.94 81.6249 415.975 82.5152 418.023 84.2956C420.091 86.076 421.124 88.852 421.124 92.6234V114.017H416.329L415.037 109.509H414.807C413.907 110.658 412.978 111.605 412.021 112.352C411.064 113.098 409.954 113.654 408.69 114.017C407.446 114.4 405.924 114.592 404.124 114.592C402.229 114.592 400.535 114.247 399.041 113.558C397.548 112.85 396.371 111.777 395.509 110.342C394.648 108.906 394.217 107.087 394.217 104.885C394.217 101.612 395.433 99.1517 397.864 97.5053C400.314 95.8589 404.009 94.9495 408.949 94.7772L414.462 94.5762V92.9106C414.462 90.709 413.945 89.1391 412.911 88.2011C411.897 87.263 410.461 86.794 408.604 86.794C407.015 86.794 405.474 87.0237 403.981 87.4832C402.487 87.9426 401.032 88.5074 399.616 89.1774L397.433 84.4105C398.984 83.5873 400.745 82.9172 402.717 82.4003C404.708 81.8834 406.776 81.6249 408.92 81.6249ZM414.433 98.8263L410.327 98.9698C406.958 99.0847 404.593 99.659 403.234 100.693C401.875 101.727 401.195 103.143 401.195 104.943C401.195 106.513 401.664 107.661 402.602 108.389C403.54 109.097 404.775 109.451 406.307 109.451C408.642 109.451 410.576 108.791 412.107 107.47C413.658 106.13 414.433 104.168 414.433 101.583V98.8263ZM434.409 114.017H427.632V69.3342H434.409V114.017ZM478.38 102.588C478.38 105.077 477.767 107.221 476.542 109.021C475.336 110.82 473.594 112.199 471.315 113.156C469.056 114.113 466.357 114.592 463.217 114.592C461.686 114.592 460.221 114.506 458.824 114.333C457.426 114.161 456.105 113.912 454.861 113.587C453.636 113.242 452.516 112.83 451.501 112.352V105.862C453.205 106.608 455.11 107.288 457.216 107.901C459.321 108.494 461.466 108.791 463.648 108.791C465.429 108.791 466.903 108.561 468.07 108.102C469.257 107.623 470.138 106.953 470.712 106.092C471.287 105.211 471.574 104.187 471.574 103.019C471.574 101.774 471.239 100.722 470.569 99.8601C469.899 98.9986 468.884 98.2136 467.525 97.5053C466.185 96.7778 464.5 96.0024 462.471 95.1792C461.092 94.624 459.771 93.9923 458.508 93.2839C457.263 92.5756 456.153 91.7428 455.177 90.7856C454.2 89.8284 453.425 88.6988 452.851 87.397C452.295 86.076 452.018 84.5253 452.018 82.7449C452.018 80.371 452.583 78.3417 453.712 76.657C454.861 74.9722 456.469 73.68 458.537 72.7802C460.623 71.8804 463.055 71.4305 465.831 71.4305C468.032 71.4305 470.1 71.6603 472.033 72.1197C473.986 72.5792 475.901 73.2301 477.777 74.0725L475.594 79.6148C473.871 78.9064 472.196 78.3417 470.569 77.9205C468.961 77.4993 467.314 77.2887 465.63 77.2887C464.175 77.2887 462.94 77.5089 461.925 77.9492C460.91 78.3895 460.135 79.0117 459.599 79.8158C459.082 80.6007 458.824 81.5388 458.824 82.63C458.824 83.8553 459.12 84.8891 459.714 85.7314C460.327 86.5546 461.265 87.3109 462.528 88.0001C463.811 88.6893 465.457 89.455 467.467 90.2974C469.784 91.2546 471.746 92.2597 473.354 93.3126C474.982 94.3656 476.226 95.6291 477.088 97.1032C477.949 98.5582 478.38 100.387 478.38 102.588ZM510.99 98.0509C510.99 100.693 510.646 103.038 509.957 105.086C509.267 107.135 508.262 108.868 506.941 110.284C505.62 111.682 504.031 112.754 502.174 113.5C500.317 114.228 498.221 114.592 495.885 114.592C493.703 114.592 491.702 114.228 489.884 113.5C488.065 112.754 486.486 111.682 485.145 110.284C483.824 108.868 482.8 107.135 482.073 105.086C481.345 103.038 480.982 100.693 480.982 98.0509C480.982 94.5475 481.585 91.5801 482.791 89.1487C484.016 86.6982 485.758 84.8316 488.017 83.549C490.276 82.2663 492.966 81.6249 496.087 81.6249C499.016 81.6249 501.6 82.2663 503.84 83.549C506.08 84.8316 507.832 86.6982 509.095 89.1487C510.359 91.5992 510.99 94.5666 510.99 98.0509ZM487.931 98.0509C487.931 100.367 488.209 102.349 488.764 103.995C489.338 105.642 490.219 106.905 491.406 107.786C492.593 108.647 494.124 109.078 496 109.078C497.877 109.078 499.408 108.647 500.595 107.786C501.782 106.905 502.653 105.642 503.208 103.995C503.763 102.349 504.041 100.367 504.041 98.0509C504.041 95.7344 503.763 93.7721 503.208 92.164C502.653 90.5367 501.782 89.3019 500.595 88.4595C499.408 87.598 497.867 87.1673 495.972 87.1673C493.177 87.1673 491.138 88.1053 489.855 89.9815C488.572 91.8577 487.931 94.5475 487.931 98.0509ZM522.581 114.017H515.803V69.3342H522.581V114.017ZM557 82.228V114.017H551.688L550.769 109.739H550.396C549.726 110.83 548.874 111.739 547.84 112.467C546.806 113.175 545.657 113.702 544.394 114.046C543.13 114.41 541.8 114.592 540.402 114.592C538.009 114.592 535.961 114.19 534.257 113.386C532.572 112.562 531.28 111.299 530.38 109.595C529.48 107.891 529.03 105.69 529.03 102.99V82.228H535.807V101.727C535.807 104.196 536.305 106.044 537.301 107.269C538.315 108.494 539.885 109.107 542.01 109.107C544.059 109.107 545.686 108.686 546.892 107.843C548.098 107.001 548.95 105.757 549.448 104.11C549.965 102.464 550.223 100.444 550.223 98.0509V82.228H557ZM575.569 109.136C576.449 109.136 577.32 109.059 578.182 108.906C579.043 108.734 579.828 108.532 580.537 108.303V113.414C579.79 113.74 578.823 114.017 577.636 114.247C576.449 114.477 575.214 114.592 573.932 114.592C572.132 114.592 570.514 114.295 569.079 113.702C567.643 113.089 566.504 112.046 565.661 110.571C564.819 109.097 564.398 107.058 564.398 104.455V87.3683H560.062V84.353L564.714 81.9695L566.925 75.1637H571.175V82.228H580.278V87.3683H571.175V104.369C571.175 105.977 571.577 107.173 572.381 107.958C573.185 108.743 574.248 109.136 575.569 109.136ZM590.806 82.228V114.017H584.057V82.228H590.806ZM587.475 70.0521C588.508 70.0521 589.399 70.3297 590.145 70.8849C590.911 71.4401 591.294 72.3973 591.294 73.7566C591.294 75.0967 590.911 76.0539 590.145 76.6282C589.399 77.1834 588.508 77.461 587.475 77.461C586.402 77.461 585.493 77.1834 584.746 76.6282C584.019 76.0539 583.655 75.0967 583.655 73.7566C583.655 72.3973 584.019 71.4401 584.746 70.8849C585.493 70.3297 586.402 70.0521 587.475 70.0521ZM625.685 98.0509C625.685 100.693 625.34 103.038 624.651 105.086C623.962 107.135 622.957 108.868 621.636 110.284C620.315 111.682 618.726 112.754 616.869 113.5C615.012 114.228 612.916 114.592 610.58 114.592C608.398 114.592 606.397 114.228 604.578 113.5C602.759 112.754 601.18 111.682 599.84 110.284C598.519 108.868 597.495 107.135 596.767 105.086C596.04 103.038 595.676 100.693 595.676 98.0509C595.676 94.5475 596.279 91.5801 597.485 89.1487C598.71 86.6982 600.453 84.8316 602.712 83.549C604.971 82.2663 607.66 81.6249 610.781 81.6249C613.71 81.6249 616.295 82.2663 618.535 83.549C620.774 84.8316 622.526 86.6982 623.79 89.1487C625.053 91.5992 625.685 94.5666 625.685 98.0509ZM602.625 98.0509C602.625 100.367 602.903 102.349 603.458 103.995C604.033 105.642 604.913 106.905 606.1 107.786C607.287 108.647 608.819 109.078 610.695 109.078C612.571 109.078 614.103 108.647 615.29 107.786C616.476 106.905 617.348 105.642 617.903 103.995C618.458 102.349 618.736 100.367 618.736 98.0509C618.736 95.7344 618.458 93.7721 617.903 92.164C617.348 90.5367 616.476 89.3019 615.29 88.4595C614.103 87.598 612.561 87.1673 610.666 87.1673C607.871 87.1673 605.832 88.1053 604.549 89.9815C603.267 91.8577 602.625 94.5475 602.625 98.0509ZM647.067 81.6249C650.647 81.6249 653.433 82.5535 655.424 84.4105C657.434 86.2483 658.439 89.2062 658.439 93.2839V114.017H651.691V94.5475C651.691 92.0778 651.183 90.2304 650.169 89.0051C649.154 87.7607 647.584 87.1386 645.459 87.1386C642.377 87.1386 640.233 88.0862 639.027 89.9815C637.84 91.8768 637.246 94.624 637.246 98.2232V114.017H630.498V82.228H635.753L636.701 86.5355H637.074C637.763 85.4251 638.615 84.5158 639.63 83.8074C640.664 83.0799 641.812 82.5343 643.076 82.1706C644.358 81.8068 645.689 81.6249 647.067 81.6249ZM686.312 104.943C686.312 107.03 685.804 108.791 684.79 110.227C683.775 111.663 682.291 112.754 680.339 113.5C678.405 114.228 676.031 114.592 673.217 114.592C670.996 114.592 669.082 114.429 667.474 114.104C665.885 113.797 664.382 113.319 662.965 112.668V106.838C664.477 107.547 666.172 108.159 668.048 108.676C669.943 109.193 671.733 109.451 673.418 109.451C675.639 109.451 677.237 109.107 678.214 108.418C679.19 107.709 679.678 106.771 679.678 105.603C679.678 104.914 679.477 104.302 679.075 103.766C678.692 103.21 677.965 102.646 676.893 102.071C675.84 101.478 674.289 100.769 672.241 99.9462C670.23 99.1421 668.536 98.3381 667.158 97.534C665.779 96.7299 664.736 95.7631 664.028 94.6336C663.319 93.4849 662.965 92.0204 662.965 90.24C662.965 87.4257 664.075 85.2911 666.296 83.8361C668.536 82.362 671.494 81.6249 675.17 81.6249C677.122 81.6249 678.96 81.826 680.683 82.228C682.425 82.6109 684.129 83.1756 685.795 83.9223L683.67 89.0051C682.234 88.3734 680.789 87.8565 679.334 87.4544C677.898 87.0333 676.433 86.8227 674.94 86.8227C673.198 86.8227 671.867 87.0907 670.948 87.6267C670.048 88.1628 669.599 88.9286 669.599 89.9241C669.599 90.6707 669.819 91.3025 670.259 91.8194C670.699 92.3363 671.456 92.8532 672.528 93.3701C673.619 93.887 675.131 94.5283 677.065 95.2941C678.96 96.0216 680.597 96.7874 681.975 97.5914C683.373 98.3764 684.445 99.3432 685.192 100.492C685.938 101.64 686.312 103.124 686.312 104.943Z" fill="#012E3E"/>
<path d="M273.641 23.6046C273.641 28.3333 272.732 32.2867 270.913 35.4646C269.114 38.6235 266.5 41.007 263.073 42.6151C259.647 44.2041 255.521 44.9986 250.697 44.9986H238.808V3.01477H251.989C256.392 3.01477 260.211 3.79969 263.447 5.36954C266.682 6.92024 269.19 9.22715 270.971 12.2903C272.751 15.3342 273.641 19.1057 273.641 23.6046ZM264.394 23.8344C264.394 20.733 263.935 18.1868 263.016 16.1957C262.116 14.1856 260.776 12.7019 258.996 11.7446C257.234 10.7874 255.052 10.3088 252.448 10.3088H247.71V37.6471H251.529C255.875 37.6471 259.101 36.4889 261.207 34.1724C263.332 31.8559 264.394 28.4099 264.394 23.8344ZM291.951 12.2903C294.918 12.2903 297.474 12.8646 299.618 14.0133C301.763 15.1428 303.419 16.7892 304.586 18.9525C305.754 21.1159 306.338 23.7578 306.338 26.8783V31.1284H285.633C285.729 33.5981 286.466 35.5412 287.844 36.9579C289.242 38.3555 291.176 39.0542 293.645 39.0542C295.694 39.0542 297.57 38.8436 299.274 38.4225C300.978 38.0013 302.729 37.3695 304.529 36.5272V43.3043C302.94 44.0892 301.274 44.6636 299.532 45.0273C297.809 45.391 295.713 45.5729 293.243 45.5729C290.027 45.5729 287.174 44.9794 284.686 43.7925C282.216 42.6055 280.273 40.7964 278.856 38.365C277.459 35.9337 276.76 32.8706 276.76 29.1757C276.76 25.4234 277.392 22.3028 278.655 19.814C279.938 17.3061 281.718 15.43 283.996 14.1856C286.275 12.922 288.926 12.2903 291.951 12.2903ZM292.008 18.5218C290.305 18.5218 288.888 19.0674 287.758 20.1586C286.648 21.2499 286.007 22.9633 285.834 25.2989H298.125C298.106 23.9971 297.867 22.8389 297.407 21.8242C296.967 20.8096 296.297 20.0055 295.397 19.412C294.516 18.8185 293.387 18.5218 292.008 18.5218ZM332.918 35.4646C332.918 37.6471 332.401 39.4946 331.368 41.007C330.353 42.5002 328.831 43.6393 326.802 44.4243C324.772 45.19 322.245 45.5729 319.22 45.5729C316.98 45.5729 315.056 45.4293 313.448 45.1422C311.859 44.855 310.251 44.3764 308.624 43.7063V36.4697C310.366 37.2546 312.233 37.9056 314.224 38.4225C316.234 38.9202 317.995 39.1691 319.508 39.1691C321.211 39.1691 322.427 38.9202 323.155 38.4225C323.901 37.9056 324.274 37.2355 324.274 36.4123C324.274 35.8762 324.121 35.3976 323.815 34.9765C323.528 34.5361 322.896 34.0479 321.92 33.5119C320.943 32.9567 319.412 32.2388 317.325 31.3582C315.315 30.5158 313.659 29.6639 312.357 28.8024C311.074 27.9409 310.117 26.9262 309.485 25.7584C308.873 24.5714 308.566 23.0686 308.566 21.2499C308.566 18.2825 309.715 16.0522 312.012 14.5589C314.329 13.0465 317.421 12.2903 321.288 12.2903C323.279 12.2903 325.174 12.4913 326.974 12.8933C328.793 13.2953 330.659 13.9367 332.574 14.8173L329.932 21.135C328.343 20.4458 326.84 19.881 325.423 19.4407C324.026 19.0004 322.599 18.7802 321.144 18.7802C319.862 18.7802 318.895 18.9525 318.244 19.2971C317.593 19.6417 317.268 20.1682 317.268 20.8766C317.268 21.3935 317.43 21.8529 317.756 22.255C318.1 22.657 318.751 23.1069 319.709 23.6046C320.685 24.0833 322.111 24.7054 323.987 25.4712C325.806 26.2179 327.385 27.0028 328.726 27.826C330.066 28.6301 331.099 29.6352 331.827 30.8413C332.554 32.0282 332.918 33.5693 332.918 35.4646ZM345.571 12.8933V44.9986H336.812V12.8933H345.571ZM341.206 0.315398C342.508 0.315398 343.628 0.62171 344.566 1.23433C345.504 1.82781 345.973 2.94776 345.973 4.59419C345.973 6.22147 345.504 7.35099 344.566 7.98276C343.628 8.59538 342.508 8.90169 341.206 8.90169C339.885 8.90169 338.755 8.59538 337.817 7.98276C336.898 7.35099 336.439 6.22147 336.439 4.59419C336.439 2.94776 336.898 1.82781 337.817 1.23433C338.755 0.62171 339.885 0.315398 341.206 0.315398ZM361.239 59.1272C356.759 59.1272 353.332 58.3423 350.958 56.7724C348.603 55.2217 347.426 53.0393 347.426 50.225C347.426 48.2914 348.029 46.6737 349.235 45.3719C350.441 44.0701 352.212 43.1416 354.548 42.5864C353.648 42.2035 352.863 41.5813 352.193 40.7198C351.523 39.8392 351.188 38.9106 351.188 37.9343C351.188 36.709 351.542 35.6944 352.25 34.8903C352.959 34.0671 353.983 33.263 355.323 32.4781C353.638 31.7506 352.298 30.5828 351.303 28.9747C350.326 27.3665 349.838 25.4712 349.838 23.2888C349.838 20.9531 350.345 18.9717 351.36 17.3444C352.394 15.698 353.887 14.444 355.84 13.5825C357.812 12.721 360.205 12.2903 363.019 12.2903C363.613 12.2903 364.302 12.3286 365.087 12.4051C365.872 12.4817 366.589 12.5679 367.24 12.6636C367.91 12.7593 368.36 12.8359 368.59 12.8933H379.79V17.3444L374.764 18.6367C375.224 19.345 375.568 20.1012 375.798 20.9053C376.028 21.7093 376.143 22.5613 376.143 23.4611C376.143 26.9071 374.936 29.5969 372.524 31.5305C370.131 33.4449 366.8 34.4021 362.531 34.4021C361.516 34.3447 360.559 34.2681 359.659 34.1724C359.219 34.517 358.884 34.8807 358.654 35.2636C358.424 35.6465 358.31 36.0485 358.31 36.4697C358.31 36.8909 358.482 37.2451 358.826 37.5322C359.19 37.8003 359.726 38.0109 360.435 38.164C361.162 38.298 362.062 38.365 363.134 38.365H368.59C372.113 38.365 374.793 39.1212 376.631 40.6336C378.488 42.1461 379.416 44.3668 379.416 47.2959C379.416 51.0482 377.846 53.9582 374.707 56.0258C371.586 58.0934 367.097 59.1272 361.239 59.1272ZM361.612 53.4126C363.699 53.4126 365.489 53.2116 366.982 52.8095C368.494 52.4266 369.653 51.8714 370.457 51.144C371.261 50.4356 371.663 49.5837 371.663 48.5882C371.663 47.7841 371.423 47.1428 370.945 46.6642C370.485 46.2047 369.777 45.8792 368.82 45.6878C367.882 45.4963 366.676 45.4006 365.202 45.4006H360.664C359.592 45.4006 358.625 45.5729 357.764 45.9175C356.922 46.2621 356.251 46.7407 355.754 47.3534C355.256 47.9851 355.007 48.7126 355.007 49.5358C355.007 50.7419 355.581 51.6896 356.73 52.3788C357.898 53.068 359.525 53.4126 361.612 53.4126ZM363.019 29.0608C364.665 29.0608 365.872 28.5535 366.637 27.5388C367.403 26.5242 367.786 25.1458 367.786 23.4036C367.786 21.47 367.384 20.0246 366.58 19.0674C365.795 18.091 364.608 17.6029 363.019 17.6029C361.411 17.6029 360.205 18.091 359.401 19.0674C358.597 20.0246 358.195 21.47 358.195 23.4036C358.195 25.1458 358.587 26.5242 359.372 27.5388C360.176 28.5535 361.392 29.0608 363.019 29.0608ZM400.397 12.2903C403.824 12.2903 406.58 13.2283 408.667 15.1045C410.754 16.9615 411.797 19.948 411.797 24.0641V44.9986H403.039V26.2466C403.039 23.9492 402.617 22.2167 401.775 21.0489C400.952 19.881 399.65 19.2971 397.87 19.2971C395.189 19.2971 393.361 20.2065 392.385 22.0252C391.408 23.8439 390.92 26.4667 390.92 29.8936V44.9986H382.162V12.8933H388.853L390.03 16.9998H390.518C391.207 15.8894 392.059 14.9896 393.074 14.3004C394.108 13.6112 395.247 13.1039 396.491 12.7784C397.755 12.453 399.057 12.2903 400.397 12.2903ZM447.096 44.9986H438.194V10.4237H426.793V3.01477H458.496V10.4237H447.096V44.9986ZM470.086 0.315398V9.41859C470.086 11.0076 470.029 12.52 469.914 13.9558C469.818 15.3917 469.742 16.4063 469.684 16.9998H470.144C470.833 15.8894 471.647 14.9896 472.585 14.3004C473.542 13.6112 474.595 13.1039 475.744 12.7784C476.892 12.453 478.127 12.2903 479.448 12.2903C481.765 12.2903 483.784 12.7019 485.507 13.5251C487.23 14.3291 488.57 15.6023 489.528 17.3444C490.485 19.0674 490.963 21.3073 490.963 24.0641V44.9986H482.205V26.2466C482.205 23.9492 481.784 22.2167 480.941 21.0489C480.099 19.881 478.797 19.2971 477.036 19.2971C475.275 19.2971 473.887 19.7087 472.872 20.532C471.857 21.336 471.139 22.5326 470.718 24.1215C470.297 25.6914 470.086 27.6154 470.086 29.8936V44.9986H461.328V0.315398H470.086ZM505.798 12.8933V44.9986H497.04V12.8933H505.798ZM501.434 0.315398C502.735 0.315398 503.855 0.62171 504.793 1.23433C505.731 1.82781 506.201 2.94776 506.201 4.59419C506.201 6.22147 505.731 7.35099 504.793 7.98276C503.855 8.59538 502.735 8.90169 501.434 8.90169C500.113 8.90169 498.983 8.59538 498.045 7.98276C497.126 7.35099 496.667 6.22147 496.667 4.59419C496.667 2.94776 497.126 1.82781 498.045 1.23433C498.983 0.62171 500.113 0.315398 501.434 0.315398ZM530.311 12.2903C533.738 12.2903 536.495 13.2283 538.581 15.1045C540.668 16.9615 541.712 19.948 541.712 24.0641V44.9986H532.953V26.2466C532.953 23.9492 532.532 22.2167 531.689 21.0489C530.866 19.881 529.564 19.2971 527.784 19.2971C525.104 19.2971 523.275 20.2065 522.299 22.0252C521.323 23.8439 520.835 26.4667 520.835 29.8936V44.9986H512.076V12.8933H518.767L519.944 16.9998H520.433C521.122 15.8894 521.974 14.9896 522.988 14.3004C524.022 13.6112 525.161 13.1039 526.406 12.7784C527.669 12.453 528.971 12.2903 530.311 12.2903ZM556.547 0.315398V20.3022C556.547 21.5083 556.499 22.7144 556.403 23.9205C556.307 25.1266 556.202 26.3327 556.087 27.5388H556.202C556.796 26.6965 557.399 25.8637 558.011 25.0405C558.643 24.2173 559.313 23.4228 560.021 22.657L569.01 12.8933H578.888L566.138 26.8209L579.664 44.9986H569.555L560.309 31.9899L556.547 35.0052V44.9986H547.788V0.315398H556.547ZM590.076 12.8933V44.9986H581.318V12.8933H590.076ZM585.711 0.315398C587.013 0.315398 588.133 0.62171 589.071 1.23433C590.009 1.82781 590.478 2.94776 590.478 4.59419C590.478 6.22147 590.009 7.35099 589.071 7.98276C588.133 8.59538 587.013 8.90169 585.711 8.90169C584.39 8.90169 583.261 8.59538 582.323 7.98276C581.404 7.35099 580.944 6.22147 580.944 4.59419C580.944 2.94776 581.404 1.82781 582.323 1.23433C583.261 0.62171 584.39 0.315398 585.711 0.315398ZM614.589 12.2903C618.016 12.2903 620.773 13.2283 622.859 15.1045C624.946 16.9615 625.989 19.948 625.989 24.0641V44.9986H617.231V26.2466C617.231 23.9492 616.81 22.2167 615.967 21.0489C615.144 19.881 613.842 19.2971 612.062 19.2971C609.382 19.2971 607.553 20.2065 606.577 22.0252C605.601 23.8439 605.112 26.4667 605.112 29.8936V44.9986H596.354V12.8933H603.045L604.222 16.9998H604.71C605.4 15.8894 606.251 14.9896 607.266 14.3004C608.3 13.6112 609.439 13.1039 610.683 12.7784C611.947 12.453 613.249 12.2903 614.589 12.2903ZM641.456 59.1272C636.976 59.1272 633.55 58.3423 631.176 56.7724C628.821 55.2217 627.644 53.0393 627.644 50.225C627.644 48.2914 628.247 46.6737 629.453 45.3719C630.659 44.0701 632.43 43.1416 634.765 42.5864C633.865 42.2035 633.081 41.5813 632.41 40.7198C631.74 39.8392 631.405 38.9106 631.405 37.9343C631.405 36.709 631.76 35.6944 632.468 34.8903C633.176 34.0671 634.2 33.263 635.541 32.4781C633.856 31.7506 632.516 30.5828 631.52 28.9747C630.544 27.3665 630.056 25.4712 630.056 23.2888C630.056 20.9531 630.563 18.9717 631.578 17.3444C632.611 15.698 634.105 14.444 636.058 13.5825C638.029 12.721 640.422 12.2903 643.237 12.2903C643.83 12.2903 644.519 12.3286 645.304 12.4051C646.089 12.4817 646.807 12.5679 647.458 12.6636C648.128 12.7593 648.578 12.8359 648.808 12.8933H660.007V17.3444L654.982 18.6367C655.441 19.345 655.786 20.1012 656.016 20.9053C656.245 21.7093 656.36 22.5613 656.36 23.4611C656.36 26.9071 655.154 29.5969 652.742 31.5305C650.349 33.4449 647.018 34.4021 642.748 34.4021C641.734 34.3447 640.777 34.2681 639.877 34.1724C639.437 34.517 639.101 34.8807 638.872 35.2636C638.642 35.6465 638.527 36.0485 638.527 36.4697C638.527 36.8909 638.699 37.2451 639.044 37.5322C639.408 37.8003 639.944 38.0109 640.652 38.164C641.38 38.298 642.279 38.365 643.352 38.365H648.808C652.33 38.365 655.011 39.1212 656.848 40.6336C658.705 42.1461 659.634 44.3668 659.634 47.2959C659.634 51.0482 658.064 53.9582 654.924 56.0258C651.804 58.0934 647.314 59.1272 641.456 59.1272ZM641.83 53.4126C643.916 53.4126 645.706 53.2116 647.2 52.8095C648.712 52.4266 649.87 51.8714 650.674 51.144C651.478 50.4356 651.88 49.5837 651.88 48.5882C651.88 47.7841 651.641 47.1428 651.162 46.6642C650.703 46.2047 649.995 45.8792 649.037 45.6878C648.099 45.4963 646.893 45.4006 645.419 45.4006H640.882C639.81 45.4006 638.843 45.5729 637.982 45.9175C637.139 46.2621 636.469 46.7407 635.971 47.3534C635.474 47.9851 635.225 48.7126 635.225 49.5358C635.225 50.7419 635.799 51.6896 636.948 52.3788C638.116 53.068 639.743 53.4126 641.83 53.4126ZM643.237 29.0608C644.883 29.0608 646.089 28.5535 646.855 27.5388C647.621 26.5242 648.004 25.1458 648.004 23.4036C648.004 21.47 647.602 20.0246 646.798 19.0674C646.013 18.091 644.826 17.6029 643.237 17.6029C641.629 17.6029 640.422 18.091 639.618 19.0674C638.814 20.0246 638.412 21.47 638.412 23.4036C638.412 25.1458 638.805 26.5242 639.59 27.5388C640.394 28.5535 641.609 29.0608 643.237 29.0608Z" fill="url(#paint0_linear_1033_3732)"/>
<defs>
<linearGradient id="paint0_linear_1033_3732" x1="242.127" y1="30.4946" x2="651.238" y2="35.9961" gradientUnits="userSpaceOnUse">
<stop stop-color="#A41A1E"/>
<stop offset="0.986458" stop-color="#1F0068"/>
</linearGradient>
</defs>
</svg>
