<svg width="24" height="24" viewBox="0 0 24 24" fill="none" xmlns="http://www.w3.org/2000/svg">
<path d="M15.9295 12.5427L7.56996 20.5077C7.43048 20.6407 7.24516 20.7148 7.05246 20.7148C6.85975 20.7148 6.67444 20.6407 6.53496 20.5077L6.52596 20.4987C6.45811 20.4342 6.40408 20.3567 6.36716 20.2707C6.33024 20.1847 6.3112 20.092 6.3112 19.9985C6.3112 19.9049 6.33024 19.8122 6.36716 19.7262C6.40408 19.6403 6.45811 19.5627 6.52596 19.4982L14.398 11.9982L6.52596 4.5012C6.45811 4.43674 6.40408 4.35915 6.36716 4.27315C6.33024 4.18715 6.3112 4.09454 6.3112 4.00095C6.3112 3.90736 6.33024 3.81475 6.36716 3.72875C6.40408 3.64275 6.45811 3.56516 6.52596 3.5007L6.53496 3.4917C6.67444 3.35873 6.85975 3.28456 7.05246 3.28456C7.24516 3.28456 7.43048 3.35873 7.56996 3.4917L15.9295 11.4567C16.003 11.5267 16.0615 11.611 16.1015 11.7043C16.1415 11.7977 16.1621 11.8982 16.1621 11.9997C16.1621 12.1012 16.1415 12.2017 16.1015 12.2951C16.0615 12.3884 16.003 12.4727 15.9295 12.5427Z" fill="black"/>
</svg>
