<svg width="24" height="24" viewBox="0 0 24 24" fill="none" xmlns="http://www.w3.org/2000/svg">
<path d="M8.07054 12.5427L16.43 20.5077C16.5695 20.6407 16.7548 20.7148 16.9475 20.7148C17.1402 20.7148 17.3256 20.6407 17.465 20.5077L17.474 20.4987C17.5419 20.4342 17.5959 20.3567 17.6328 20.2707C17.6698 20.1847 17.6888 20.092 17.6888 19.9985C17.6888 19.9049 17.6698 19.8122 17.6328 19.7262C17.5959 19.6403 17.5419 19.5627 17.474 19.4982L9.60204 11.9982L17.474 4.5012C17.5419 4.43674 17.5959 4.35915 17.6328 4.27315C17.6698 4.18715 17.6888 4.09454 17.6888 4.00095C17.6888 3.90736 17.6698 3.81475 17.6328 3.72875C17.5959 3.64275 17.5419 3.56516 17.474 3.5007L17.465 3.4917C17.3256 3.35873 17.1402 3.28456 16.9475 3.28456C16.7548 3.28456 16.5695 3.35873 16.43 3.4917L8.07054 11.4567C7.99702 11.5267 7.93849 11.611 7.8985 11.7043C7.85851 11.7977 7.83789 11.8982 7.83789 11.9997C7.83789 12.1012 7.85851 12.2017 7.8985 12.2951C7.93849 12.3884 7.99702 12.4727 8.07054 12.5427Z" fill="black"/>
</svg>
