<svg width="64" height="64" viewBox="0 0 64 64" fill="none" xmlns="http://www.w3.org/2000/svg">
<path fill-rule="evenodd" clip-rule="evenodd" d="M23.9986 12C24.4331 12.0001 24.8558 12.1417 25.2027 12.4035C25.5497 12.6652 25.8019 13.0328 25.9212 13.4507L28.0892 21.04C28.556 22.6744 29.4317 24.1629 30.6337 25.3649C31.8356 26.5668 33.3241 27.4425 34.9586 27.9093L42.5479 30.0773C42.9655 30.197 43.3328 30.4493 43.5942 30.7962C43.8557 31.143 43.9971 31.5656 43.9971 32C43.9971 32.4344 43.8557 32.857 43.5942 33.2038C43.3328 33.5507 42.9655 33.803 42.5479 33.9227L34.9586 36.0907C33.3241 36.5575 31.8356 37.4332 30.6337 38.6351C29.4317 39.8371 28.556 41.3256 28.0892 42.96L25.9212 50.5493C25.8016 50.9669 25.5493 51.3342 25.2024 51.5957C24.8555 51.8571 24.4329 51.9986 23.9986 51.9986C23.5642 51.9986 23.1416 51.8571 22.7947 51.5957C22.4478 51.3342 22.1955 50.9669 22.0759 50.5493L19.9079 42.96C19.4411 41.3256 18.5654 39.8371 17.3634 38.6351C16.1615 37.4332 14.673 36.5575 13.0386 36.0907L5.44923 33.9227C5.03164 33.803 4.66435 33.5507 4.40289 33.2038C4.14142 32.857 4 32.4344 4 32C4 31.5656 4.14142 31.143 4.40289 30.7962C4.66435 30.4493 5.03164 30.197 5.44923 30.0773L13.0386 27.9093C14.673 27.4425 16.1615 26.5668 17.3634 25.3649C18.5654 24.1629 19.4411 22.6744 19.9079 21.04L22.0759 13.4507C22.1953 13.0328 22.4475 12.6652 22.7944 12.4035C23.1413 12.1417 23.564 12.0001 23.9986 12ZM47.9986 4C48.4447 3.99975 48.8782 4.1487 49.23 4.42316C49.5817 4.69762 49.8316 5.08183 49.9399 5.51467L50.6279 8.27733C51.2572 10.784 53.2146 12.7413 55.7212 13.3707L58.4839 14.0587C58.9176 14.1661 59.3028 14.4156 59.5781 14.7675C59.8534 15.1193 60.003 15.5532 60.003 16C60.003 16.4468 59.8534 16.8807 59.5781 17.2325C59.3028 17.5844 58.9176 17.8339 58.4839 17.9413L55.7212 18.6293C53.2146 19.2587 51.2572 21.216 50.6279 23.7227L49.9399 26.4853C49.8325 26.919 49.5829 27.3042 49.2311 27.5795C48.8792 27.8549 48.4453 28.0045 47.9986 28.0045C47.5518 28.0045 47.1179 27.8549 46.766 27.5795C46.4142 27.3042 46.1646 26.919 46.0572 26.4853L45.3692 23.7227C45.0615 22.4918 44.4251 21.3677 43.528 20.4706C42.6308 19.5735 41.5067 18.937 40.2759 18.6293L37.5132 17.9413C37.0796 17.8339 36.6943 17.5844 36.419 17.2325C36.1437 16.8807 35.9941 16.4468 35.9941 16C35.9941 15.5532 36.1437 15.1193 36.419 14.7675C36.6943 14.4156 37.0796 14.1661 37.5132 14.0587L40.2759 13.3707C41.5067 13.063 42.6308 12.4265 43.528 11.5294C44.4251 10.6323 45.0615 9.50819 45.3692 8.27733L46.0572 5.51467C46.1655 5.08183 46.4154 4.69762 46.7672 4.42316C47.1189 4.1487 47.5524 3.99975 47.9986 4ZM43.9986 40C44.4186 39.9998 44.8281 40.1318 45.1689 40.3773C45.5097 40.6229 45.7645 40.9695 45.8972 41.368L46.9479 44.5227C47.3479 45.7147 48.2812 46.6533 49.4759 47.0507L52.6306 48.104C53.0278 48.2374 53.3731 48.4921 53.6178 48.8323C53.8624 49.1725 53.994 49.581 53.994 50C53.994 50.419 53.8624 50.8275 53.6178 51.1677C53.3731 51.5079 53.0278 51.7626 52.6306 51.896L49.4759 52.9493C48.2839 53.3493 47.3452 54.2827 46.9479 55.4773L45.8946 58.632C45.7612 59.0292 45.5064 59.3746 45.1662 59.6192C44.826 59.8638 44.4176 59.9955 43.9986 59.9955C43.5795 59.9955 43.1711 59.8638 42.8309 59.6192C42.4907 59.3746 42.2359 59.0292 42.1026 58.632L41.0492 55.4773C40.8528 54.8888 40.5221 54.3539 40.0834 53.9152C39.6446 53.4764 39.1098 53.1458 38.5212 52.9493L35.3666 51.896C34.9693 51.7626 34.624 51.5079 34.3794 51.1677C34.1347 50.8275 34.0031 50.419 34.0031 50C34.0031 49.581 34.1347 49.1725 34.3794 48.8323C34.624 48.4921 34.9693 48.2374 35.3666 48.104L38.5212 47.0507C39.7132 46.6507 40.6519 45.7173 41.0492 44.5227L42.1026 41.368C42.2351 40.9699 42.4896 40.6236 42.8298 40.3781C43.1701 40.1326 43.579 40.0003 43.9986 40Z" fill="#A41A1E" fill-opacity="0.25"/>
</svg>
