<svg width="62" height="62" viewBox="0 0 62 62" fill="none" xmlns="http://www.w3.org/2000/svg">
<path fill-rule="evenodd" clip-rule="evenodd" d="M23.2508 11.6254C23.6718 11.6255 24.0813 11.7627 24.4174 12.0163C24.7534 12.2698 24.9978 12.6259 25.1134 13.0307L27.2136 20.3828C27.6658 21.9662 28.5142 23.4081 29.6786 24.5725C30.8429 25.7368 32.2849 26.5852 33.8682 27.0374L41.2203 29.1376C41.6248 29.2535 41.9806 29.4979 42.2339 29.834C42.4872 30.17 42.6242 30.5794 42.6242 31.0002C42.6242 31.421 42.4872 31.8304 42.2339 32.1664C41.9806 32.5024 41.6248 32.7469 41.2203 32.8627L33.8682 34.963C32.2849 35.4152 30.8429 36.2635 29.6786 37.4279C28.5142 38.5923 27.6658 40.0342 27.2136 41.6176L25.1134 48.9696C24.9975 49.3742 24.7531 49.73 24.417 49.9833C24.081 50.2366 23.6716 50.3736 23.2508 50.3736C22.83 50.3736 22.4207 50.2366 22.0846 49.9833C21.7486 49.73 21.5042 49.3742 21.3883 48.9696L19.2881 41.6176C18.8358 40.0342 17.9875 38.5923 16.8231 37.4279C15.6588 36.2635 14.2168 35.4152 12.6335 34.963L5.28138 32.8627C4.87685 32.7469 4.52104 32.5024 4.26775 32.1664C4.01446 31.8304 3.87746 31.421 3.87746 31.0002C3.87746 30.5794 4.01446 30.17 4.26775 29.834C4.52104 29.4979 4.87685 29.2535 5.28138 29.1376L12.6335 27.0374C14.2168 26.5852 15.6588 25.7368 16.8231 24.5725C17.9875 23.4081 18.8358 21.9662 19.2881 20.3828L21.3883 13.0307C21.5039 12.6259 21.7482 12.2698 22.0843 12.0163C22.4204 11.7627 22.8299 11.6255 23.2508 11.6254ZM46.5006 3.87549C46.9328 3.87525 47.3527 4.01955 47.6935 4.28543C48.0343 4.55131 48.2763 4.9235 48.3812 5.34281L49.0477 8.01911C49.6574 10.4474 51.5535 12.3436 53.9818 12.9532L56.6581 13.6197C57.0782 13.7238 57.4514 13.9655 57.7181 14.3064C57.9849 14.6472 58.1298 15.0676 58.1298 15.5004C58.1298 15.9332 57.9849 16.3535 57.7181 16.6944C57.4514 17.0352 57.0782 17.2769 56.6581 17.381L53.9818 18.0475C51.5535 18.6572 49.6574 20.5533 49.0477 22.9816L48.3812 25.6579C48.2772 26.078 48.0354 26.4512 47.6946 26.7179C47.3537 26.9846 46.9334 27.1296 46.5006 27.1296C46.0678 27.1296 45.6474 26.9846 45.3066 26.7179C44.9657 26.4512 44.724 26.078 44.6199 25.6579L43.9534 22.9816C43.6554 21.7892 43.0388 20.7003 42.1697 19.8312C41.3006 18.9621 40.2117 18.3456 39.0193 18.0475L36.343 17.381C35.9229 17.2769 35.5497 17.0352 35.283 16.6944C35.0163 16.3535 34.8714 15.9332 34.8714 15.5004C34.8714 15.0676 35.0163 14.6472 35.283 14.3064C35.5497 13.9655 35.9229 13.7238 36.343 13.6197L39.0193 12.9532C40.2117 12.6551 41.3006 12.0386 42.1697 11.1695C43.0388 10.3004 43.6554 9.21149 43.9534 8.01911L44.6199 5.34281C44.7248 4.9235 44.9669 4.55131 45.3077 4.28543C45.6485 4.01955 46.0684 3.87525 46.5006 3.87549ZM42.6256 38.7501C43.0325 38.7499 43.4292 38.8777 43.7593 39.1156C44.0895 39.3535 44.3363 39.6893 44.4649 40.0753L45.4828 43.1314C45.8703 44.2861 46.7744 45.1954 47.9317 45.5804L50.9878 46.6008C51.3726 46.73 51.7071 46.9768 51.9441 47.3063C52.1811 47.6359 52.3086 48.0316 52.3086 48.4375C52.3086 48.8434 52.1811 49.2391 51.9441 49.5687C51.7071 49.8982 51.3726 50.145 50.9878 50.2742L47.9317 51.2946C46.777 51.6821 45.8677 52.5863 45.4828 53.7436L44.4624 56.7996C44.3332 57.1845 44.0864 57.519 43.7568 57.756C43.4272 57.993 43.0316 58.1205 42.6256 58.1205C42.2197 58.1205 41.824 57.993 41.4945 57.756C41.1649 57.519 40.9181 57.1845 40.7889 56.7996L39.7685 53.7436C39.5782 53.1734 39.2579 52.6553 38.8328 52.2303C38.4078 51.8052 37.8897 51.4849 37.3195 51.2946L34.2635 50.2742C33.8786 50.145 33.5441 49.8982 33.3071 49.5687C33.0701 49.2391 32.9426 48.8434 32.9426 48.4375C32.9426 48.0316 33.0701 47.6359 33.3071 47.3063C33.5441 46.9768 33.8786 46.73 34.2635 46.6008L37.3195 45.5804C38.4743 45.1929 39.3836 44.2887 39.7685 43.1314L40.7889 40.0753C40.9173 39.6897 41.1638 39.3542 41.4934 39.1164C41.8231 38.8785 42.2192 38.7504 42.6256 38.7501Z" fill="#A41A1E" fill-opacity="0.25"/>
</svg>
