<svg width="62" height="62" viewBox="0 0 62 62" fill="none" xmlns="http://www.w3.org/2000/svg">
<path d="M25.348 41.085L23.2478 48.4372L21.1475 41.085C20.6047 39.1859 19.5869 37.4564 18.1903 36.0598C16.7936 34.6631 15.0642 33.6454 13.1651 33.1025L5.81033 30.9997L13.1625 28.8995C15.0616 28.3566 16.7911 27.3389 18.1877 25.9422C19.5844 24.5456 20.6021 22.8161 21.1449 20.917L23.2478 13.5623L25.348 20.9144C25.8908 22.8135 26.9086 24.543 28.3053 25.9397C29.7019 27.3363 31.4314 28.3541 33.3305 28.8969L40.6852 30.9997L33.3331 33.1C31.434 33.6428 29.7045 34.6605 28.3078 36.0572C26.9112 37.4538 25.8934 39.1833 25.3506 41.0824L25.348 41.085ZM47.1668 22.5135L46.4977 25.1872L45.8286 22.5135C45.4456 20.9805 44.6533 19.5804 43.5362 18.4629C42.4191 17.3454 41.0194 16.5525 39.4866 16.1688L36.8102 15.4998L39.4866 14.8307C41.0194 14.4471 42.4191 13.6541 43.5362 12.5366C44.6533 11.4191 45.4456 10.019 45.8286 8.48604L46.4977 5.8123L47.1668 8.48604C47.55 10.0193 48.3427 11.4196 49.4603 12.5372C50.5778 13.6547 51.9781 14.4475 53.5114 14.8307L56.1852 15.4998L53.5114 16.1688C51.9781 16.552 50.5778 17.3448 49.4603 18.4624C48.3427 19.5799 47.55 20.9802 47.1668 22.5135ZM43.6405 53.1311L42.6227 56.1871L41.6049 53.1311C41.3195 52.275 40.8388 51.4972 40.2007 50.8591C39.5627 50.2211 38.7848 49.7403 37.9288 49.455L34.8727 48.4372L37.9288 47.4193C38.7848 47.134 39.5627 46.6532 40.2007 46.0152C40.8388 45.3771 41.3195 44.5993 41.6049 43.7433L42.6227 40.6872L43.6405 43.7433C43.9259 44.5993 44.4066 45.3771 45.0447 46.0152C45.6827 46.6532 46.4606 47.134 47.3166 47.4193L50.3727 48.4372L47.3166 49.455C46.4606 49.7403 45.6827 50.2211 45.0447 50.8591C44.4066 51.4972 43.9259 52.275 43.6405 53.1311Z" stroke="#A41A1E" stroke-opacity="0.11" stroke-width="3.84908" stroke-linecap="round" stroke-linejoin="round"/>
</svg>
