<svg width="30" height="30" viewBox="0 0 30 30" fill="none" xmlns="http://www.w3.org/2000/svg">
<path d="M8.90659 20.156L19.025 10.0377L15.938 10.0377C15.5719 10.0377 15.275 9.74081 15.275 9.37469C15.2751 9.00866 15.5719 8.7117 15.938 8.7117H20.6251C20.6677 8.71168 20.7104 8.71612 20.7524 8.72428C20.7712 8.72794 20.7887 8.73586 20.8069 8.74107C20.8317 8.74815 20.8571 8.75342 20.8811 8.76345C20.8877 8.76623 20.8934 8.77095 20.8999 8.77394C20.932 8.78859 20.9638 8.80426 20.9937 8.82429C21.0653 8.8723 21.1266 8.93393 21.1748 9.00543C21.1949 9.03527 21.2104 9.0671 21.2251 9.09914C21.2281 9.10566 21.2328 9.11139 21.2356 9.11802C21.2477 9.14668 21.2558 9.17637 21.2636 9.20614C21.267 9.21897 21.2715 9.23149 21.2741 9.24461C21.2827 9.28759 21.2881 9.33102 21.2881 9.37469V14.0618C21.2881 14.4279 20.9912 14.7248 20.6251 14.7248C20.3049 14.7247 20.0379 14.498 19.9761 14.1961L19.9628 14.0625V10.9755L9.84444 21.0939L9.74023 21.1785C9.48291 21.3485 9.13317 21.3198 8.90659 21.0932C8.6479 20.8343 8.64777 20.4149 8.90659 20.156Z" stroke="white" stroke-width="1.30909" stroke-linecap="round" stroke-linejoin="round"/>
</svg>
