<svg width="62" height="62" viewBox="0 0 62 62" fill="none" xmlns="http://www.w3.org/2000/svg">
<path d="M7.75098 33.906C7.75098 32.3017 9.05297 30.9997 10.6572 30.9997H16.4696C18.0739 30.9997 19.3759 32.3017 19.3759 33.906V51.3433C19.3759 52.9475 18.0739 54.2495 16.4696 54.2495H10.6572C9.88642 54.2495 9.14722 53.9433 8.60219 53.3983C8.05717 52.8532 7.75098 52.114 7.75098 51.3433V33.906ZM25.1883 22.2811C25.1883 20.6769 26.4903 19.3749 28.0945 19.3749H33.9069C35.5112 19.3749 36.8132 20.6769 36.8132 22.2811V51.3433C36.8132 52.9475 35.5112 54.2495 33.9069 54.2495H28.0945C27.3237 54.2495 26.5845 53.9433 26.0395 53.3983C25.4945 52.8532 25.1883 52.114 25.1883 51.3433V22.2811ZM42.6256 10.6562C42.6256 9.05199 43.9276 7.75 45.5318 7.75H51.3442C52.9485 7.75 54.2505 9.05199 54.2505 10.6562V51.3433C54.2505 52.9475 52.9485 54.2495 51.3442 54.2495H45.5318C44.761 54.2495 44.0218 53.9433 43.4768 53.3983C42.9318 52.8532 42.6256 52.114 42.6256 51.3433V10.6562Z" stroke="#A41A1E" stroke-opacity="0.11" stroke-width="3.84908" stroke-linecap="round" stroke-linejoin="round"/>
</svg>
