<svg width="64" height="64" viewBox="0 0 64 64" fill="none" xmlns="http://www.w3.org/2000/svg">
<path d="M8 35C8 33.344 9.344 32 11 32H17C18.656 32 20 33.344 20 35V53C20 54.656 18.656 56 17 56H11C10.2044 56 9.44129 55.6839 8.87868 55.1213C8.31607 54.5587 8 53.7957 8 53V35ZM26 23C26 21.344 27.344 20 29 20H35C36.656 20 38 21.344 38 23V53C38 54.656 36.656 56 35 56H29C28.2044 56 27.4413 55.6839 26.8787 55.1213C26.3161 54.5587 26 53.7957 26 53V23ZM44 11C44 9.344 45.344 8 47 8H53C54.656 8 56 9.344 56 11V53C56 54.656 54.656 56 53 56H47C46.2044 56 45.4413 55.6839 44.8787 55.1213C44.3161 54.5587 44 53.7957 44 53V11Z" stroke="#A41A1E" stroke-opacity="0.11" stroke-width="4" stroke-linecap="round" stroke-linejoin="round"/>
</svg>
