<svg width="30" height="30" viewBox="0 0 30 30" fill="none" xmlns="http://www.w3.org/2000/svg">
<path d="M9.84264 8.90578L19.9609 19.0241L19.9609 15.9371C19.9609 15.571 20.2578 15.2741 20.6239 15.2741C20.9899 15.2742 21.2869 15.571 21.2869 15.9371V20.6242C21.2869 20.6668 21.2825 20.7095 21.2743 20.7515C21.2707 20.7703 21.2627 20.7878 21.2575 20.806C21.2504 20.8308 21.2452 20.8562 21.2351 20.8801C21.2324 20.8868 21.2276 20.8925 21.2247 20.899C21.21 20.9311 21.1943 20.9629 21.1743 20.9927C21.1263 21.0644 21.0647 21.1257 20.9932 21.1739C20.9633 21.194 20.9315 21.2095 20.8994 21.2242C20.8929 21.2272 20.8872 21.2319 20.8806 21.2347C20.8519 21.2468 20.8222 21.2549 20.7924 21.2627C20.7796 21.2661 20.7671 21.2706 20.754 21.2732C20.711 21.2818 20.6676 21.2872 20.6239 21.2872L15.9368 21.2872C15.5707 21.2872 15.2738 20.9903 15.2738 20.6242C15.2739 20.304 15.5006 20.037 15.8025 19.9752L15.9361 19.9619H19.0231L8.9048 9.84361L8.82018 9.73941C8.65017 9.48209 8.67893 9.13235 8.9055 8.90578C9.1644 8.64709 9.58382 8.64696 9.84264 8.90578Z" stroke="url(#paint0_linear_1033_4480)" stroke-width="1.30909" stroke-linecap="round" stroke-linejoin="round"/>
<defs>
<linearGradient id="paint0_linear_1033_4480" x1="21.3141" y1="16.7396" x2="18.0292" y2="19.8735" gradientUnits="userSpaceOnUse">
<stop stop-color="#A41A1E"/>
<stop offset="1" stop-color="#1F0068"/>
</linearGradient>
</defs>
</svg>
