<svg width="15" height="24" viewBox="0 0 15 24" fill="none" xmlns="http://www.w3.org/2000/svg">
<path d="M6 14.8547V21.5719C6 21.8047 6.05419 22.0344 6.15839 22.2427L6.82917 23.5842C7.10555 24.1369 7.89417 24.1369 8.17073 23.5842L8.84152 22.2427C8.94375 22.0359 9 21.8063 9 21.5719V14.8547C8.5125 14.9484 8.01094 15 7.5 15C6.98906 15 6.4875 14.9484 6 14.8547ZM7.5 0C3.77203 0 0.75 3.02203 0.75 6.75C0.75 10.478 3.77203 13.5 7.5 13.5C11.228 13.5 14.25 10.478 14.25 6.75001C14.25 3.02204 11.2266 0 7.5 0ZM7.5 3.70782C5.84625 3.70782 4.5 5.05407 4.5 6.70782C4.5 7.12239 4.16456 7.45782 3.75 7.45782C3.33544 7.45782 3 7.16251 3 6.70782C3 4.22626 5.01844 2.20782 7.5 2.20782C7.91456 2.20782 8.25 2.54326 8.25 2.91563C8.25 3.28801 7.9125 3.70782 7.5 3.70782Z" fill="white"/>
</svg>
