<svg width="64" height="64" viewBox="0 0 64 64" fill="none" xmlns="http://www.w3.org/2000/svg">
<path d="M26.168 42.4107L24 50L21.832 42.4107C21.2717 40.4503 20.2211 38.665 18.7794 37.2233C17.3376 35.7816 15.5524 34.731 13.592 34.1707L6 32L13.5893 29.832C15.5497 29.2717 17.335 28.2211 18.7767 26.7794C20.2184 25.3377 21.269 23.5524 21.8293 21.592L24 14L26.168 21.5893C26.7283 23.5497 27.7789 25.335 29.2206 26.7767C30.6624 28.2184 32.4476 29.269 34.408 29.8293L42 32L34.4107 34.168C32.4503 34.7283 30.665 35.7789 29.2233 37.2206C27.7816 38.6624 26.731 40.4476 26.1707 42.408L26.168 42.4107ZM48.6907 23.24L48 26L47.3093 23.24C46.914 21.6576 46.0961 20.2123 44.943 19.0587C43.7899 17.9052 42.3449 17.0866 40.7627 16.6907L38 16L40.7627 15.3093C42.3449 14.9134 43.7899 14.0948 44.943 12.9413C46.0961 11.7877 46.914 10.3424 47.3093 8.76L48 6L48.6907 8.76C49.0862 10.3428 49.9046 11.7882 51.0582 12.9418C52.2118 14.0954 53.6572 14.9138 55.24 15.3093L58 16L55.24 16.6907C53.6572 17.0862 52.2118 17.9046 51.0582 19.0582C49.9046 20.2118 49.0862 21.6572 48.6907 23.24ZM45.0507 54.8453L44 58L42.9493 54.8453C42.6548 53.9617 42.1585 53.1587 41.4999 52.5001C40.8413 51.8415 40.0383 51.3452 39.1547 51.0507L36 50L39.1547 48.9493C40.0383 48.6548 40.8413 48.1585 41.4999 47.4999C42.1585 46.8413 42.6548 46.0383 42.9493 45.1547L44 42L45.0507 45.1547C45.3452 46.0383 45.8415 46.8413 46.5001 47.4999C47.1587 48.1585 47.9617 48.6548 48.8453 48.9493L52 50L48.8453 51.0507C47.9617 51.3452 47.1587 51.8415 46.5001 52.5001C45.8415 53.1587 45.3452 53.9617 45.0507 54.8453Z" stroke="#A41A1E" stroke-opacity="0.11" stroke-width="4" stroke-linecap="round" stroke-linejoin="round"/>
</svg>
