<svg width="21" height="21" viewBox="0 0 21 21" fill="none" xmlns="http://www.w3.org/2000/svg">
<g clip-path="url(#clip0_3108_6659)">
<path d="M20.5613 5.44546C20.3198 4.54189 19.6083 3.83039 18.7047 3.58889C17.0668 3.15002 10.5 3.15002 10.5 3.15002C10.5 3.15002 3.93311 3.15002 2.29528 3.58889C1.39187 3.83039 0.680203 4.54189 0.438744 5.44546C0 7.08314 0 10.5001 0 10.5001C0 10.5001 0 13.9171 0.438744 15.5546C0.680203 16.4582 1.39187 17.1699 2.29528 17.4113C3.93311 17.85 10.5 17.85 10.5 17.85C10.5 17.85 17.0668 17.85 18.7047 17.4113C19.6083 17.1699 20.3198 16.4582 20.5613 15.5546C21 13.9171 21 10.5001 21 10.5001C21 10.5001 21 7.08314 20.5613 5.44546ZM8.39988 13.6502V7.35007L13.8557 10.5001L8.39988 13.6502Z" fill="white"/>
</g>
<defs>
<clipPath id="clip0_3108_6659">
<rect width="21" height="21" fill="white"/>
</clipPath>
</defs>
</svg>
