<svg width="23" height="23" viewBox="0 0 23 23" fill="none" xmlns="http://www.w3.org/2000/svg">
<path fill-rule="evenodd" clip-rule="evenodd" d="M12.0076 15.6046C11.8729 15.7392 11.6902 15.8148 11.4997 15.8148C11.3093 15.8148 11.1266 15.7392 10.9918 15.6046L3.80431 8.41713C3.67735 8.28088 3.60823 8.10067 3.61152 7.91447C3.6148 7.72826 3.69024 7.5506 3.82192 7.41891C3.95361 7.28723 4.13127 7.21179 4.31748 7.20851C4.50368 7.20522 4.68389 7.27434 4.82014 7.4013L11.4997 14.0809L18.1793 7.4013C18.2451 7.33068 18.3244 7.27405 18.4126 7.23476C18.5008 7.19548 18.596 7.17435 18.6925 7.17265C18.789 7.17095 18.8848 7.1887 18.9743 7.22485C19.0638 7.261 19.1451 7.31481 19.2134 7.38306C19.2816 7.45131 19.3354 7.53261 19.3716 7.6221C19.4077 7.7116 19.4255 7.80746 19.4238 7.90397C19.4221 8.00047 19.401 8.09565 19.3617 8.18382C19.3224 8.27198 19.2657 8.35133 19.1951 8.41713L12.0076 15.6046Z" fill="white"/>
</svg>
