<svg width="64" height="64" viewBox="0 0 64 64" fill="none" xmlns="http://www.w3.org/2000/svg">
<path fill-rule="evenodd" clip-rule="evenodd" d="M28 10C25.6362 10 23.2956 10.4656 21.1117 11.3702C18.9278 12.2748 16.9435 13.6007 15.2721 15.2721C13.6006 16.9436 12.2748 18.9279 11.3702 21.1117C10.4656 23.2956 10 25.6362 10 28C10 30.3638 10.4656 32.7045 11.3702 34.8883C12.2748 37.0722 13.6006 39.0565 15.2721 40.728C16.9435 42.3994 18.9278 43.7253 21.1117 44.6299C23.2956 45.5344 25.6362 46 28 46C32.7739 46 37.3523 44.1036 40.7279 40.728C44.1036 37.3523 46 32.7739 46 28C46 23.2261 44.1036 18.6478 40.7279 15.2721C37.3523 11.8965 32.7739 10 28 10ZM6 28C6.00047 24.467 6.85184 20.986 8.4821 17.8515C10.1124 14.717 12.4736 12.0213 15.366 9.99235C18.2584 7.9634 21.5969 6.6609 25.0991 6.19503C28.6013 5.72916 32.1642 6.11363 35.4865 7.31591C38.8087 8.5182 41.7925 10.5029 44.1854 13.1022C46.5784 15.7015 48.3102 18.8389 49.2342 22.249C50.1583 25.6591 50.2474 29.2416 49.4942 32.6934C48.7409 36.1453 47.1674 39.3649 44.9067 42.08L57.4133 54.5867C57.6098 54.7698 57.7674 54.9906 57.8767 55.2359C57.9861 55.4813 58.0448 55.7461 58.0496 56.0146C58.0543 56.2832 58.0049 56.5499 57.9043 56.799C57.8037 57.048 57.654 57.2742 57.4641 57.4641C57.2742 57.654 57.048 57.8038 56.7989 57.9044C56.5499 58.0049 56.2831 58.0543 56.0146 58.0496C55.7461 58.0449 55.4812 57.9861 55.2359 57.8768C54.9906 57.7675 54.7698 57.6099 54.5867 57.4134L42.08 44.9067C38.8673 47.5827 34.9585 49.2877 30.8115 49.8221C26.6646 50.3564 22.4513 49.6979 18.6651 47.9238C14.8789 46.1496 11.6768 43.3333 9.43369 39.8046C7.19061 36.276 5.99954 32.1812 6 28Z" fill="#A41A1E" fill-opacity="0.11"/>
</svg>
