<svg width="36" height="36" viewBox="0 0 36 36" fill="none" xmlns="http://www.w3.org/2000/svg">
<path d="M18 20.8125C19.5533 20.8125 20.8125 19.5533 20.8125 18C20.8125 16.4467 19.5533 15.1875 18 15.1875C16.4467 15.1875 15.1875 16.4467 15.1875 18C15.1875 19.5533 16.4467 20.8125 18 20.8125Z" fill="white"/>
<path d="M23.625 9H12.375C11.4799 9 10.6214 9.35558 9.98851 9.98851C9.35558 10.6214 9 11.4799 9 12.375V23.625C9 24.5201 9.35558 25.3786 9.98851 26.0115C10.6214 26.6444 11.4799 27 12.375 27H23.625C24.5201 27 25.3786 26.6444 26.0115 26.0115C26.6444 25.3786 27 24.5201 27 23.625V12.375C27 11.4799 26.6444 10.6214 26.0115 9.98851C25.3786 9.35558 24.5201 9 23.625 9ZM18 23.0625C16.9987 23.0625 16.0199 22.7656 15.1874 22.2093C14.3549 21.653 13.706 20.8624 13.3229 19.9373C12.9397 19.0123 12.8394 17.9944 13.0348 17.0124C13.2301 16.0303 13.7123 15.1283 14.4203 14.4203C15.1283 13.7123 16.0303 13.2301 17.0124 13.0348C17.9944 12.8394 19.0123 12.9397 19.9373 13.3229C20.8624 13.706 21.653 14.3549 22.2093 15.1874C22.7656 16.0199 23.0625 16.9987 23.0625 18C23.0625 19.3427 22.5291 20.6303 21.5797 21.5797C20.6303 22.5291 19.3427 23.0625 18 23.0625ZM23.0625 14.0625C22.84 14.0625 22.6225 13.9965 22.4375 13.8729C22.2525 13.7493 22.1083 13.5736 22.0231 13.368C21.938 13.1625 21.9157 12.9363 21.9591 12.718C22.0025 12.4998 22.1097 12.2993 22.267 12.142C22.4243 11.9847 22.6248 11.8775 22.843 11.8341C23.0613 11.7907 23.2875 11.813 23.493 11.8981C23.6986 11.9833 23.8743 12.1275 23.9979 12.3125C24.1215 12.4975 24.1875 12.715 24.1875 12.9375C24.1875 13.2359 24.069 13.522 23.858 13.733C23.647 13.944 23.3609 14.0625 23.0625 14.0625Z" fill="white"/>
</svg>
