<svg width="24" height="24" viewBox="0 0 24 24" fill="none" xmlns="http://www.w3.org/2000/svg">
<g clip-path="url(#clip0_1033_4253)">
<path d="M23.8961 4.08039L19.9211 0.10305C19.8885 0.0703805 19.8497 0.0444644 19.807 0.0267827C19.7644 0.0091009 19.7186 0 19.6724 0C19.6263 0 19.5805 0.0091009 19.5379 0.0267827C19.4952 0.0444644 19.4564 0.0703805 19.4238 0.10305L18.4272 1.09727C18.2737 1.25129 18.1875 1.45989 18.1875 1.67735C18.1875 1.89481 18.2737 2.1034 18.4272 2.25742L21.7417 5.57196C21.8957 5.72558 22.1043 5.81186 22.3218 5.81186C22.5393 5.81186 22.7479 5.72558 22.9019 5.57196L23.8961 4.57774C23.9288 4.54509 23.9547 4.50632 23.9724 4.46365C23.9901 4.42099 23.9992 4.37525 23.9992 4.32907C23.9992 4.28288 23.9901 4.23714 23.9724 4.19448C23.9547 4.15181 23.9288 4.11304 23.8961 4.08039Z" fill="#A41A1E"/>
<path d="M18.0413 6.78634C18.1233 6.70439 18.179 6.59998 18.2016 6.48632C18.2242 6.37267 18.2126 6.25486 18.1683 6.14781C18.1239 6.04075 18.0488 5.94925 17.9525 5.88487C17.8561 5.82049 17.7428 5.78613 17.627 5.78613C17.5111 5.78613 17.3978 5.82049 17.3014 5.88487C17.2051 5.94925 17.13 6.04075 17.0856 6.14781C17.0413 6.25486 17.0297 6.37267 17.0523 6.48632C17.0749 6.59998 17.1306 6.70439 17.2126 6.78634C17.3226 6.89602 17.4716 6.95762 17.627 6.95762C17.7823 6.95762 17.9313 6.89602 18.0413 6.78634Z" fill="#A41A1E"/>
<path d="M17.9307 2.75453C17.844 2.66735 17.768 2.5701 17.7043 2.46484L15.6503 3.25469C15.6035 3.27279 15.5611 3.30068 15.5259 3.33649C15.4907 3.3723 15.4636 3.41521 15.4464 3.46234L13.6431 8.40203C13.5898 8.5489 13.5794 8.70789 13.6131 8.86045C13.6468 9.013 13.7232 9.15282 13.8334 9.26359L14.0364 9.46609L16.5025 7C16.3519 6.72822 16.3048 6.41118 16.3696 6.10735C16.4345 5.80351 16.607 5.53338 16.8554 5.34675C17.1038 5.16012 17.4113 5.06958 17.7211 5.09183C18.031 5.11408 18.3224 5.24761 18.5416 5.46781C18.7607 5.68801 18.8929 5.98002 18.9137 6.29C18.9345 6.59998 18.8425 6.90703 18.6547 7.15453C18.4669 7.40202 18.196 7.57327 17.8918 7.63671C17.5877 7.70014 17.2709 7.65148 16.9998 7.49969L14.5337 9.96578L14.7367 10.1688C14.891 10.3225 15.1001 10.4088 15.3179 10.4088C15.4139 10.4089 15.5091 10.3921 15.5992 10.3591L20.5389 8.55578C20.586 8.53854 20.6289 8.51142 20.6647 8.47626C20.7005 8.44109 20.7284 8.39869 20.7465 8.35187L21.5364 6.29828C21.4311 6.23453 21.3338 6.15836 21.2467 6.07141L17.9307 2.75453Z" fill="#A41A1E"/>
<path d="M6.32812 18.4922C6.32812 18.5233 6.34047 18.5531 6.36245 18.5751C6.38443 18.597 6.41423 18.6094 6.44531 18.6094H11.1328C11.1639 18.6094 11.1937 18.597 11.2157 18.5751C11.2377 18.5531 11.25 18.5233 11.25 18.4922V17.9062H6.32812V18.4922Z" fill="#A41A1E"/>
<path d="M9.88359 14.0067L8.78906 12.1523L7.69453 14.0067C7.65035 14.0809 7.58039 14.1363 7.498 14.1622C7.4156 14.1882 7.32654 14.1829 7.24781 14.1473L5.57812 13.3973L6.24375 15.7969H11.3344L12 13.4002L10.3303 14.1502C10.2512 14.1853 10.162 14.1902 10.0796 14.1637C9.99717 14.1372 9.9274 14.0814 9.88359 14.0067Z" fill="#A41A1E"/>
<path d="M2.57812 9V21.4219H15V11.0756C14.7122 11.0142 14.4481 10.8714 14.2392 10.6641L13.3359 9.76078C13.1283 9.55213 12.9854 9.28795 12.9244 9H2.57812ZM11.9531 18.4922C11.9529 18.7097 11.8664 18.9182 11.7126 19.072C11.5588 19.2257 11.3503 19.3123 11.1328 19.3125H6.44531C6.22783 19.3123 6.01932 19.2257 5.86554 19.072C5.71175 18.9182 5.62525 18.7097 5.625 18.4922V17.5547C5.625 17.4614 5.66204 17.372 5.72797 17.3061C5.7939 17.2402 5.88332 17.2031 5.97656 17.2031H11.6016C11.6948 17.2031 11.7842 17.2402 11.8502 17.3061C11.9161 17.372 11.9531 17.4614 11.9531 17.5547V18.4922ZM12.878 12.8672L11.9405 16.2422C11.9198 16.3162 11.8755 16.3815 11.8143 16.4281C11.7532 16.4746 11.6784 16.4999 11.6016 16.5H5.97656C5.89975 16.4999 5.82507 16.4747 5.7639 16.4282C5.70272 16.3818 5.65839 16.3166 5.63766 16.2427L4.70016 12.8677C4.68227 12.8033 4.68308 12.7352 4.70249 12.6713C4.7219 12.6074 4.75911 12.5504 4.80976 12.5068C4.86041 12.4633 4.92241 12.4351 4.98851 12.4256C5.0546 12.416 5.12205 12.4254 5.18297 12.4528L7.24875 13.3786L8.48438 11.2823C8.51545 11.2297 8.55972 11.186 8.61283 11.1557C8.66593 11.1253 8.72603 11.1094 8.78719 11.1094C8.84835 11.1094 8.90844 11.1253 8.96155 11.1557C9.01466 11.186 9.05893 11.2297 9.09 11.2823L10.3275 13.3786L12.3933 12.4528C12.4542 12.4254 12.5216 12.416 12.5877 12.4256C12.6538 12.4351 12.7158 12.4633 12.7665 12.5068C12.8171 12.5504 12.8544 12.6074 12.8738 12.6713C12.8932 12.7352 12.894 12.8033 12.8761 12.8677L12.878 12.8672Z" fill="#A41A1E"/>
<path d="M15.7031 11.0625V21.7734C15.7031 21.8667 15.6661 21.9561 15.6002 22.022C15.5342 22.088 15.4448 22.125 15.3516 22.125H2.22656C2.13332 22.125 2.0439 22.088 1.97797 22.022C1.91204 21.9561 1.875 21.8667 1.875 21.7734V8.64844C1.875 8.5552 1.91204 8.46578 1.97797 8.39985C2.0439 8.33391 2.13332 8.29688 2.22656 8.29688H12.9408C12.9525 8.25 12.9661 8.20594 12.982 8.16141L13.6172 6.42188H1.28906C0.947334 6.42237 0.619744 6.55834 0.378105 6.79998C0.136467 7.04162 0.000495978 7.36921 0 7.71094L0 22.7109C0.000495978 23.0527 0.136467 23.3803 0.378105 23.6219C0.619744 23.8635 0.947334 23.9995 1.28906 24H16.2891C16.6308 23.9995 16.9584 23.8635 17.2 23.6219C17.4417 23.3803 17.5776 23.0527 17.5781 22.7109V10.3828L15.8386 11.0156C15.7941 11.0339 15.75 11.048 15.7031 11.0625Z" fill="#A41A1E"/>
</g>
<defs>
<clipPath id="clip0_1033_4253">
<rect width="24" height="24" fill="white"/>
</clipPath>
</defs>
</svg>
