<svg width="33" height="33" viewBox="0 0 33 33" fill="none" xmlns="http://www.w3.org/2000/svg">
<path d="M31.625 26.125C31.625 26.4897 31.4801 26.8394 31.2223 27.0973C30.9644 27.3551 30.6147 27.5 30.25 27.5H13.75C13.3853 27.5 13.0356 27.3551 12.7777 27.0973C12.5199 26.8394 12.375 26.4897 12.375 26.125C12.375 23.937 13.2442 21.8385 14.7914 20.2914C16.3385 18.7442 18.437 17.875 20.625 17.875H23.375C25.563 17.875 27.6615 18.7442 29.2086 20.2914C30.7558 21.8385 31.625 23.937 31.625 26.125ZM22 5.5C20.9122 5.5 19.8488 5.82257 18.9444 6.42692C18.0399 7.03126 17.3349 7.89025 16.9187 8.89524C16.5024 9.90024 16.3935 11.0061 16.6057 12.073C16.8179 13.1399 17.3417 14.1199 18.1109 14.8891C18.8801 15.6583 19.8601 16.1821 20.927 16.3943C21.9939 16.6065 23.0998 16.4976 24.1048 16.0813C25.1098 15.6651 25.9687 14.9601 26.5731 14.0556C27.1774 13.1512 27.5 12.0878 27.5 11C27.5 9.54131 26.9205 8.14236 25.8891 7.11091C24.8576 6.07946 23.4587 5.5 22 5.5ZM9.625 5.5C8.5372 5.5 7.47383 5.82257 6.56936 6.42692C5.66489 7.03126 4.95994 7.89025 4.54366 8.89524C4.12738 9.90024 4.01846 11.0061 4.23068 12.073C4.4429 13.1399 4.96672 14.1199 5.73591 14.8891C6.5051 15.6583 7.48511 16.1821 8.552 16.3943C9.6189 16.6065 10.7248 16.4976 11.7298 16.0813C12.7348 15.6651 13.5937 14.9601 14.1981 14.0556C14.8024 13.1512 15.125 12.0878 15.125 11C15.125 9.54131 14.5455 8.14236 13.5141 7.11091C12.4826 6.07946 11.0837 5.5 9.625 5.5ZM9.625 26.125C9.62296 24.6807 9.9075 23.2504 10.4622 21.9168C11.0168 20.5833 11.8306 19.3731 12.8563 18.3563C12.0169 18.0393 11.1272 17.8763 10.23 17.875H9.02C6.99354 17.8786 5.05111 18.6853 3.61818 20.1182C2.18526 21.5511 1.37863 23.4935 1.375 25.52V26.125C1.375 26.4897 1.51987 26.8394 1.77773 27.0973C2.03559 27.3551 2.38533 27.5 2.75 27.5H9.8725C9.71242 27.0591 9.62872 26.5941 9.625 26.125Z" fill="white"/>
</svg>
