<svg width="24" height="24" viewBox="0 0 24 24" fill="none" xmlns="http://www.w3.org/2000/svg">
<g clip-path="url(#clip0_1199_7820)">
<path d="M9.18881 9.89092H14.8138C15.2025 9.89092 15.5169 9.57653 15.5169 9.1878C15.5169 8.79925 15.2025 8.48467 14.8138 8.48467H9.18881C8.80026 8.48467 8.48569 8.79925 8.48569 9.1878C8.48569 9.57653 8.80026 9.89092 9.18881 9.89092Z" fill="white"/>
<path d="M9.18881 12.704H14.8138C15.2025 12.704 15.5169 12.3896 15.5169 12.0009C15.5169 11.6123 15.2025 11.2977 14.8138 11.2977H9.18881C8.80026 11.2977 8.48569 11.6123 8.48569 12.0009C8.48569 12.3896 8.80026 12.704 9.18881 12.704Z" fill="white"/>
<path d="M9.18881 15.516H14.8138C15.2025 15.516 15.5169 15.2017 15.5169 14.8129C15.5169 14.4244 15.2025 14.1098 14.8138 14.1098H9.18881C8.80026 14.1098 8.48569 14.4244 8.48569 14.8129C8.48569 15.2017 8.80026 15.516 9.18881 15.516Z" fill="white"/>
<path d="M15.5628 5.16254C17.4243 6.13592 18.8475 7.83202 19.4327 9.89084H18.3262C18.0666 9.89084 17.8284 10.0337 17.7061 10.2624C17.5839 10.4909 17.5977 10.7683 17.7412 10.984C17.8238 11.1264 20.362 15.4977 20.2021 15.2223C20.4631 15.6136 21.1112 15.6136 21.3722 15.2223C21.6402 14.7609 23.9721 10.8256 23.8802 10.984C24.0237 10.7683 24.0373 10.4909 23.9151 10.2624C23.793 10.0337 23.5546 9.89084 23.2951 9.89084H22.3333C21.6919 6.73156 19.6254 4.10877 16.8466 2.66554C16.8929 2.84187 16.9193 3.02406 16.9193 3.21119C16.9207 4.71558 15.704 5.06879 15.5628 5.16254Z" fill="white"/>
<path d="M10.9851 0.117887C10.7694 -0.0254842 10.492 -0.039217 10.2635 0.0829136C10.0348 0.205227 9.89199 0.443446 9.89199 0.703088V1.66475C6.08013 2.43873 3.02283 5.27154 1.91175 8.94901C2.28749 8.6522 2.73353 8.48503 3.21235 8.48503C3.84259 8.48503 4.41607 8.76353 4.80865 9.22147C5.67931 6.97679 7.55229 5.23034 9.89199 4.56531V5.67181C9.89199 5.93145 10.0348 6.16967 10.2635 6.29198C10.4922 6.41411 10.7696 6.40038 10.9851 6.25701C11.1276 6.17425 15.4988 3.63605 15.2234 3.7959C15.6149 3.53498 15.6149 2.88679 15.2234 2.62587C14.762 2.35799 10.8267 0.0259682 10.9851 0.117887Z" fill="white"/>
<path d="M0.0829136 15.1446C0.205227 15.3733 0.443446 15.5161 0.703088 15.5161H2.06593C2.96077 18.0433 4.80096 20.1042 7.14873 21.328C7.1035 21.1541 7.07878 20.9741 7.07878 20.7895C7.07732 19.2916 8.28434 18.9367 8.42515 18.8433C7.00975 18.1021 5.84979 16.9396 5.11938 15.5161H5.67181C5.93145 15.5161 6.16967 15.3733 6.29198 15.1446C6.41411 14.9161 6.40038 14.6387 6.25683 14.423C6.17425 14.2805 3.63605 9.90929 3.79591 10.1847C3.53498 9.79339 2.88679 9.79339 2.62587 10.1847C2.44057 10.5038 -0.0335408 14.6841 0.117887 14.423C-0.0254842 14.6387 -0.039217 14.9161 0.0829136 15.1446Z" fill="white"/>
<path d="M14.1106 18.3289C14.1106 18.0692 13.9678 17.831 13.7391 17.7087C13.5106 17.5866 13.2332 17.6003 13.0175 17.7439C12.875 17.8264 8.50377 20.3646 8.77916 20.2048C8.38786 20.4657 8.38786 21.1139 8.77916 21.3748C9.24058 21.6427 13.1759 23.9747 13.0175 23.8828C13.2332 24.0263 13.5106 24.0399 13.7391 23.9178C13.9678 23.7956 14.1106 23.5572 14.1106 23.2978V22.3359C17.2697 21.6945 19.8923 19.6284 21.3355 16.8498C21.1596 16.8963 20.9774 16.9226 20.7903 16.9226C19.5959 16.9226 19.1436 16.1616 18.8149 15.6143C17.8375 17.4522 16.1515 18.8553 14.1106 19.4354V18.3289Z" fill="white"/>
</g>
<defs>
<clipPath id="clip0_1199_7820">
<rect width="23.1952" height="23.1952" fill="white" transform="scale(1.03469)"/>
</clipPath>
</defs>
</svg>
