<svg width="24" height="24" viewBox="0 0 24 24" fill="none" xmlns="http://www.w3.org/2000/svg">
<g clip-path="url(#clip0_1033_4227)">
<path d="M12.0005 11.282C12.1851 11.282 12.335 11.1322 12.335 10.9475C12.335 10.7629 12.1851 10.6133 12.0005 10.6133C11.8159 10.6133 11.666 10.7629 11.666 10.9475C11.6662 11.1322 11.8159 11.2818 12.0005 11.282Z" fill="#A41A1E"/>
<path d="M9.69336 15.3008H14.3047V16.9252H9.69336V15.3008Z" fill="#A41A1E"/>
<path d="M5.24023 22.2519C5.24023 23.2056 6.00845 24.0004 6.96192 24.0004H17.0382C17.9919 24.0004 18.7599 23.2054 18.7599 22.2519V19.7559H5.24023V22.2519ZM12.0001 20.414C12.8088 20.414 13.4644 21.0696 13.4644 21.8783C13.4644 22.6871 12.8088 23.3427 12.0001 23.3427C11.1913 23.3427 10.5357 22.6871 10.5357 21.8783C10.5367 21.07 11.1917 20.415 12.0001 20.414Z" fill="#A41A1E"/>
<path d="M13.8227 14.5674L14.5643 11.6849L12.3667 7.53613V9.94559C12.8532 10.1235 13.1419 10.6248 13.0516 11.1349C12.9611 11.645 12.5179 12.0165 11.9999 12.0165C11.4818 12.0165 11.0386 11.645 10.9481 11.1349C10.8579 10.6248 11.1465 10.1235 11.6331 9.94559V7.53613L9.4375 11.6812L10.2368 14.5674H13.8227Z" fill="#A41A1E"/>
<path d="M17.0382 0H6.96192C6.00845 0 5.24023 0.795033 5.24023 1.7485V3.40611H18.7599V1.7485C18.7599 0.795033 17.9917 0 17.0382 0ZM13.7836 1.93886H10.2166C10.0139 1.93886 9.84975 1.7747 9.84975 1.57205C9.84975 1.36941 10.0139 1.20524 10.2166 1.20524H13.7836C13.9862 1.20524 14.1504 1.36941 14.1504 1.57205C14.1504 1.7747 13.9862 1.93886 13.7836 1.93886Z" fill="#A41A1E"/>
<path d="M5.24023 19.0217H18.7599V4.13965H5.24023V19.0217ZM8.72106 11.4706L11.6758 5.88794C11.7395 5.76779 11.8641 5.69266 12.0001 5.69266C12.136 5.69266 12.2606 5.76779 12.3243 5.88794L15.2791 11.4706C15.3218 11.5502 15.3331 11.6429 15.3102 11.7303L14.5802 14.5676H14.658C14.8646 14.5694 15.033 14.734 15.0394 14.9408V17.3117C15.0394 17.5144 14.8605 17.6593 14.658 17.6593H9.3421C9.13966 17.6593 8.96076 17.5144 8.96076 17.3117V14.9408C8.9671 14.734 9.13557 14.5694 9.3421 14.5676H9.47577L8.69159 11.7367C8.66682 11.6476 8.67726 11.5522 8.72106 11.4706Z" fill="#A41A1E"/>
<path d="M12.731 21.8772C12.731 22.2809 12.4039 22.608 12.0003 22.608C11.5966 22.608 11.2695 22.2809 11.2695 21.8772C11.2695 21.4738 11.5966 21.1465 12.0003 21.1465C12.4039 21.1465 12.731 21.4738 12.731 21.8772Z" fill="#A41A1E"/>
</g>
<defs>
<clipPath id="clip0_1033_4227">
<rect width="24" height="24" fill="white"/>
</clipPath>
</defs>
</svg>
