<svg width="42" height="38" viewBox="0 0 42 38" fill="none" xmlns="http://www.w3.org/2000/svg">
<path d="M23.857 34.5061C31.0438 29.9043 34.6373 24.3624 34.6373 17.8802C34.6373 15.8635 34.2861 14.8551 33.5839 14.8551L32.8609 15.0505C32.2926 15.2695 31.8325 15.3791 31.4808 15.3791C29.4215 15.3791 27.7023 14.6306 26.3234 13.1336C24.9444 11.6366 24.2543 9.78902 24.2531 7.59097C24.2543 5.47812 24.9998 3.68475 26.4895 2.21086C27.9792 0.738193 29.7756 0.0018581 31.8787 0.0018581C34.8143 0.0018581 37.2363 1.2086 39.1447 3.62207C41.0482 6.03189 42 9.0606 42 12.7082C42.0012 16.8341 41.1919 20.6089 39.5719 24.0325C37.9483 27.455 35.4728 30.5494 32.1453 33.3158C28.8154 36.0798 26.6903 37.4624 25.7702 37.4636C25.1568 37.4636 24.6529 37.1679 24.2586 36.5764C23.8643 35.9861 23.6671 35.4719 23.6671 35.0337L23.8624 34.508L23.857 34.5061ZM0.196898 34.5061C7.38376 29.9056 10.9766 24.363 10.9754 17.8784C10.9754 15.8617 10.6242 14.8533 9.92199 14.8533L9.19904 15.0486C8.63066 15.2677 8.17061 15.3773 7.81887 15.3773C5.80338 15.3773 4.09521 14.6287 2.69435 13.1317C1.29105 11.6372 0.590015 9.78963 0.591232 7.58915C0.592449 5.47629 1.33791 3.68292 2.82762 2.20904C4.31733 0.73637 6.11374 3.43387e-05 8.21686 3.43387e-05C11.1525 3.43387e-05 13.5745 1.20677 15.4828 3.62025C17.3864 6.03007 18.3381 9.05878 18.3381 12.7064C18.3405 16.8761 17.519 20.6831 15.8735 24.1275C14.2305 27.573 11.7555 30.6565 8.44871 33.3779C5.13582 36.1005 3.02113 37.4618 2.10467 37.4618C1.49005 37.4618 0.984959 37.1661 0.589408 36.5746C0.196287 35.9831 -0.000270894 35.4682 -0.000270894 35.0301L0.196898 34.5061Z" fill="black" fill-opacity="0.07"/>
</svg>
